<?xml version="1.0" standalone="no"?>
<!DOCTYPE svg PUBLIC "-//W3C//DTD SVG 1.1//EN" "http://www.w3.org/Graphics/SVG/1.1/DTD/svg11.dtd" >
<!--
2013-9-30: Created.
-->
<svg>
<metadata>
Created by iconfont
</metadata>
<defs>

<font id="iconfont" horiz-adv-x="1024" >
  <font-face
    font-family="iconfont"
    font-weight="500"
    font-stretch="normal"
    units-per-em="1024"
    ascent="896"
    descent="-128"
  />
    <missing-glyph />
    
    <glyph glyph-name="refresh" unicode="&#58923;" d="M887.799992 772.757095c-21.461801 0-38.875402-17.413602-38.875402-38.875402l0-108.199281C771.729439 733.627912 647.609561 798.674371 512 798.674371c-228.647537 0-414.676417-186.025811-414.676417-414.676417s186.02888-414.673347 414.676417-414.673347c168.537508 0 319.054593 100.68105 383.417483 256.487605 4.100388 9.924024 3.773953 20.552082-0.023536 29.713742-3.796466 9.210779-11.136641 16.957207-21.083178 21.057595-9.895371 4.102435-20.523429 3.796466-29.713742-0.025583-9.185196-3.823072-16.929578-11.162224-21.055548-21.084201-52.292993-126.600373-174.58934-208.398354-311.540456-208.398354-185.7751 0-336.924589 151.146419-336.924589 336.921519s151.149489 336.924589 336.924589 336.924589c116.272143 0 222.118843-58.897412 283.773042-155.503657L680.461783 565.417863c-21.461801 0-38.875402-17.413602-38.875402-38.875402 0-21.459754 17.413602-38.875402 38.875402-38.875402l207.338209 0c21.461801 0 38.875402 17.416671 38.875402 38.875402L926.675394 733.8816919999999C926.675394 755.343493 909.261793 772.757095 887.799992 772.757095z"  horiz-adv-x="1024" />

    
    <glyph glyph-name="pencil-square-o" unicode="&#59227;" d="M507.428571 219.42857100000003l66.285714 66.285714-86.857143 86.857143-66.285714-66.285714 0-32 54.857143 0 0-54.857143 32 0z m251.428571 411.428571q-9.142857 9.142857-18.857143-0.571429l-200-200q-9.714286-9.714286-0.571429-18.857143t18.857143 0.571429l200 200q9.714286 9.714286 0.571429 18.857143z m45.714286-339.428571l0-108.571429q0-68-48.285714-116.285714t-116.285714-48.285714l-475.428571 0q-68 0-116.285714 48.285714t-48.285714 116.285714l0 475.428571q0 68 48.285714 116.285714t116.285714 48.285714l475.428571 0q36 0 66.857143-14.285714 8.571429-4 10.285714-13.142857 1.714286-9.714286-5.142857-16.571429l-28-28q-8-8-18.285714-4.571429-13.142857 3.428571-25.714286 3.428571l-475.428571 0q-37.714286 0-64.571429-26.857143t-26.857143-64.571429l0-475.428571q0-37.714286 26.857143-64.571429t64.571429-26.857143l475.428571 0q37.714286 0 64.571429 26.857143t26.857143 64.571429l0 72q0 7.428571 5.142857 12.571429l36.571429 36.571429q8.571429 8.571429 20 4t11.428571-16.571429z m-54.857143 421.714286l164.571429-164.571429-384-384-164.571429 0 0 164.571429z m253.714286-75.428571l-52.571429-52.571429-164.571429 164.571429 52.571429 52.571429q16 16 38.857143 16t38.857143-16l86.857143-86.857143q16-16 16-38.857143t-16-38.857143z"  horiz-adv-x="1024" />

    
    <glyph glyph-name="home" unicode="&#58909;" d="M924.377 443.567l-336.072 354.826c-20.886 22.031-48.796 34.153-78.72 34.153s-57.833-12.123-78.72-34.153l-336.071-354.826c-34.676-36.619-30.211-68.283-24.475-81.496 4.087-9.386 17.876-35.175 57.621-35.175h49.252v-272.956c0-61.981 43.879-120.33 106.222-120.33h143.079v288.88c0 30.968-4.633 48.221 26.563 48.221h113.062c31.195 0 26.563-17.253 26.563-48.221v-288.88h143.080c62.342 0 106.222 58.349 106.222 120.33l0 272.956h49.252c39.744 0 53.534 25.789 57.621 35.175 5.734 13.213 10.198 44.877-24.479 81.496zM891.232 383.079h-104.648v-329.139c0-30.968-19.677-64.145-50.826-64.145h-87.683l-0 232.696c0 61.964-19.584 104.405-81.96 104.405h-113.062c-62.389 0-81.959-42.442-81.959-104.405v-232.696h-87.682c-31.165 0-50.826 33.177-50.826 64.145l-0 329.139h-104.648c-0.983 0-1.876 3.866-2.678 3.921 1.906 3.404 5.206 12.017 10.702 17.807l336.101 354.574c10.035 10.62 24.219 17.119 37.96 16.984 13.728 0.135 27.049-6.364 37.084-16.984l336.101-354.574c5.48-5.791 8.795-14.403 10.702-17.807-0.802-0.055-1.694-3.921-2.677-3.921z"  horiz-adv-x="1024" />

    
    <glyph glyph-name="rili" unicode="&#58925;" d="M136.732943-128c-20.626713 0-39.423002 5.156928-56.389864 15.469786S49.902534-88.410324 39.922027-71.111111s-14.97076 36.262175-14.97076 56.888889L24.951267 668.444444c0 20.626713 4.990253 39.589676 14.97076 56.888889s23.786542 31.106246 41.419103 41.419103S118.102331 782.222222 138.729045 782.222222l78.846004 0 0-59.883041-82.838207 0c-13.97271 0-25.949318-4.990253-35.929825-14.97076s-14.97076-21.624764-14.97076-34.931774l0-158.690058 857.325536 0L941.161793 672.436647c0 5.322604-0.831376 10.479532-2.495127 15.469786s-4.158877 9.648156-7.48538 13.97271-6.986355 7.984405-10.978558 10.978558-8.650105 5.322604-13.97271 6.986355-10.646207 2.495127-15.968811 2.495127l-82.838207 0 0 59.883041 79.844055 0c20.626713 0 39.755353-5.156928 57.387914-15.469786S976.093567 742.632546 986.074074 725.333333s14.97076-36.262175 14.97076-56.888889l0-682.666667c0-15.303111-2.994152-29.94152-8.982456-43.91423s-13.97271-26.115992-23.953216-36.42885-22.123789-18.463938-36.42885-24.452242-29.110144-8.982456-44.413255-8.982456L136.732943-128zM83.836257-17.216374c0-13.97271 4.990253-25.949318 14.97076-35.929825s21.957115-14.97076 35.929825-14.97076l755.524366 0c6.654004 0 13.141333 1.330402 19.461988 3.992203s11.809934 6.320655 16.467836 10.978558 8.316756 10.147181 10.978558 16.467836 3.992203 12.807984 3.992203 19.461988L941.161793 453.863548 83.836257 453.863548 83.836257-17.216374zM512 5.738791c-17.299212 0-32.269973 6.320655-44.912281 18.962963s-18.962963 27.778745-18.962963 45.411306 6.320655 32.603322 18.962963 44.912281 27.613068 18.463938 44.912281 18.463938c5.988304 0 11.644257-0.831376 16.966862-2.495127s10.312858-3.825528 14.97076-6.487329 8.982456-5.988304 12.974659-9.980507 7.318706-8.316756 9.980507-12.974659 4.823579-9.648156 6.487329-14.97076 2.495127-10.978558 2.495127-16.966862c0-4.657903-0.6657-9.481481-1.996101-14.471735s-2.994152-9.481481-4.990253-13.473684-4.491228-7.817731-7.48538-11.477583-6.320655-6.986355-9.980507-9.980507S543.937622 14.721248 539.945419 12.725146s-8.483431-3.659852-13.473684-4.990253S516.657903 5.738791 512 5.738791zM264.483431 5.738791c-8.650105 0-16.966862 1.66375-24.951267 4.990253s-14.804086 7.817731-20.460039 13.473684S208.924943 36.678363 205.598441 44.662768s-4.990253 16.301162-4.990253 24.951267c0 17.964912 6.154979 33.102347 18.463938 45.411306s27.279719 18.463938 44.912281 18.463938 32.768998-6.154979 45.411306-18.463938c12.642308-12.308959 18.962963-27.446394 18.962963-45.411306 0-8.650105-1.66375-16.966862-4.990253-24.951267s-7.984405-14.804086-13.97271-20.460039-12.807984-10.147181-20.460039-13.473684S273.133536 5.738791 264.483431 5.738791zM758.019493 252.25731c-17.632561 0-32.603322 6.320655-44.912281 18.962963S694.643275 298.833341 694.643275 316.132554c0 11.310908 2.827478 21.957115 8.483431 31.937622s13.30701 17.798238 22.955166 23.454191 20.127688 8.483431 31.438596 8.483431c7.318706 0 14.139384-0.998051 20.460039-2.994152s12.143283-4.990253 17.465887-8.982456 9.980507-8.650105 13.97271-13.97271 6.986355-11.145232 8.982456-17.465887 2.994152-13.141333 2.994152-20.460039c0-17.299212-6.154979-32.269973-18.463938-44.912281S775.652055 252.25731 758.019493 252.25731zM512 252.25731c-17.299212 0-32.269973 6.320655-44.912281 18.962963s-18.962963 27.778745-18.962963 45.411306 6.320655 32.603322 18.962963 44.912281 27.613068 18.463938 44.912281 18.463938c11.310908 0 21.957115-2.827478 31.937622-8.483431s17.798238-13.473684 23.454191-23.454191 8.483431-20.626713 8.483431-31.937622c0-8.650105-1.66375-16.966862-4.990253-24.951267s-7.817731-14.804086-13.473684-20.460039S544.935673 260.574066 536.951267 257.247563 520.650105 252.25731 512 252.25731zM265.481481 252.25731c-17.299212 0-32.269973 6.320655-44.912281 18.962963s-18.962963 27.778745-18.962963 45.411306 6.320655 32.603322 18.962963 44.912281 27.613068 18.463938 44.912281 18.463938 32.269973-6.154979 44.912281-18.463938c12.642308-12.308959 18.962963-27.279719 18.962963-44.912281s-6.320655-32.768998-18.962963-45.411306C297.751454 258.577965 282.780694 252.25731 265.481481 252.25731zM713.606238 610.557505c-11.310908 0-20.959064 3.992203-28.94347 11.976608s-11.976608 17.632561-11.976608 28.94347L672.68616 853.083821c0 11.310908 3.992203 20.959064 11.976608 28.94347s17.632561 11.976608 28.94347 11.976608c7.318706 0 14.139384-1.829427 20.460039-5.489279s11.477583-8.650105 15.469786-14.97076 5.988304-13.141333 5.988304-20.460039l0-201.606238c0-11.310908-4.158877-20.959064-12.475634-28.94347S724.917146 610.557505 713.606238 610.557505zM310.393762 610.557505c-11.310908 0-20.959064 3.992203-28.94347 11.976608s-11.976608 17.632561-11.976608 28.94347L269.473684 853.083821c0 11.310908 3.992203 20.959064 11.976608 28.94347s17.632561 11.976608 28.94347 11.976608 21.125739-3.992203 29.442495-11.976608S352.311891 864.394729 352.311891 853.083821l0-201.606238c0-7.318706-1.829427-14.139384-5.489279-20.460039s-8.815782-11.310908-15.469786-14.97076S317.712468 610.557505 310.393762 610.557505zM404.210526 722.339181l0 59.883041 216.576998 0 0-59.883041L404.210526 722.339181z"  horiz-adv-x="1024" />

    
    <glyph glyph-name="jt-right" unicode="&#59253;" d="M761.055557 363.87195299999996c0.512619 0.992555 1.343475 1.823411 1.792447 2.848649 8.800538 18.304636 5.919204 40.703346-9.664077 55.424808L399.935923 756.256202c-19.264507 18.208305-49.631179 17.344765-67.872168-1.888778-18.208305-19.264507-17.375729-49.631179 1.888778-67.872168l316.960409-299.839269L335.199677 82.36828400000002c-19.071845-18.399247-19.648112-48.767639-1.247144-67.872168 9.407768-9.791372 21.984142-14.688778 34.560516-14.688778 12.000108 0 24.000215 4.479398 33.311652 13.439914l350.048434 337.375729c0.672598 0.672598 0.927187 1.599785 1.599785 2.303346 0.512619 0.479935 1.056202 0.832576 1.567101 1.343475C757.759656 357.120172 759.199462 360.608735 761.055557 363.87195299999996z"  horiz-adv-x="1024" />

    
    <glyph glyph-name="jt-left" unicode="&#59257;" d="M671.968176-15.999569999999949c-12.287381 0-24.576482 4.67206-33.951566 14.047144L286.048434 350.015751c-18.751888 18.719204-18.751888 49.12028 0 67.872168L638.016611 769.888778c18.751888 18.751888 49.12028 18.751888 67.872168 0 18.751888-18.719204 18.751888-49.12028 0-67.872168l-318.016611-318.047574L705.888778 65.95242599999995c18.751888-18.751888 18.751888-49.12028 0-67.872168C696.544658-11.327509999999961 684.255557-15.999569999999949 671.968176-15.999569999999949z"  horiz-adv-x="1024" />

    
    <glyph glyph-name="radiooff" unicode="&#58963;" d="M510.669-115.507c-67.482 0-132.915 13.21-194.56 39.219-59.494 25.19-112.947 61.133-158.822 107.008s-81.92 99.328-107.008 158.822C24.269 251.187 11.059 316.518 11.059 384s13.21 132.813 39.219 194.458c25.19 59.494 61.133 112.947 107.008 158.822S256.614 819.2 316.109 844.288c61.645 26.01 126.976 39.219 194.458 39.219 67.379 0 132.813-13.21 194.458-39.219 59.494-25.19 112.947-61.133 158.822-107.008s81.92-99.328 107.008-158.822c26.01-61.645 39.219-126.976 39.219-194.458s-13.21-132.813-39.322-194.458c-25.088-59.494-61.133-112.947-107.008-158.822-45.875-45.875-99.226-81.92-158.72-107.008C643.482-102.298 578.048-115.507 510.669-115.507L510.669-115.507M510.566 840.09c-61.542 0-121.344-12.083-177.562-35.84-54.272-22.938-103.117-55.91-144.998-97.792s-74.752-90.624-97.792-144.998c-23.757-56.218-35.84-115.917-35.84-177.562 0-61.542 12.083-121.344 35.84-177.562 22.938-54.272 55.91-103.117 97.792-144.998s90.624-74.752 144.998-97.792c56.218-23.757 115.917-35.84 177.562-35.84l0.102 0 0 0c61.542 0 121.242 12.083 177.459 35.84 54.272 22.938 103.014 55.808 144.998 97.792s74.752 90.726 97.792 144.998c23.757 56.218 35.84 115.917 35.84 177.562 0 61.542-12.083 121.344-35.84 177.562-22.938 54.272-55.808 103.117-97.792 144.998-41.882 41.984-90.726 74.854-144.998 97.792C631.91 828.006 572.109 840.09 510.566 840.09z"  horiz-adv-x="1024" />

    
    <glyph glyph-name="radioon" unicode="&#58964;" d="M510.6688-115.5072c-67.4816 0-132.9152 13.2096-194.56 39.2192-59.4944 25.1904-112.9472 61.1328-158.8224 107.008-45.8752 45.8752-81.92 99.328-107.008 158.8224-26.0096 61.6448-39.2192 126.976-39.2192 194.4576s13.2096 132.8128 39.2192 194.4576c25.1904 59.4944 61.1328 112.9472 107.008 158.8224 45.8752 45.8752 99.328 81.92 158.8224 107.008 61.6448 26.0096 126.976 39.2192 194.4576 39.2192 67.3792 0 132.8128-13.2096 194.4576-39.2192 59.4944-25.1904 112.9472-61.1328 158.8224-107.008 45.8752-45.8752 81.92-99.328 107.008-158.8224 26.0096-61.6448 39.2192-126.976 39.2192-194.4576 0-67.4816-13.2096-132.8128-39.3216-194.4576C945.664 130.048 909.6192 76.5952 863.744 30.72c-45.8752-45.8752-99.2256-81.92-158.72-107.008C643.4816-102.2976 578.048-115.5072 510.6688-115.5072 510.6688-115.5072 510.6688-115.5072 510.6688-115.5072M510.5664 840.0896c-61.5424 0-121.344-12.0832-177.5616-35.84-54.272-22.9376-103.1168-55.9104-144.9984-97.792-41.8816-41.8816-74.752-90.624-97.792-144.9984-23.7568-56.2176-35.84-115.9168-35.84-177.5616 0-61.5424 12.0832-121.344 35.84-177.5616 22.9376-54.272 55.9104-103.1168 97.792-144.9984 41.8816-41.8816 90.624-74.752 144.9984-97.792 56.2176-23.7568 115.9168-35.84 177.5616-35.84l0.1024 0c0 0 0 0 0 0 61.5424 0 121.2416 12.0832 177.4592 35.84 54.272 22.9376 103.0144 55.808 144.9984 97.792s74.752 90.7264 97.792 144.9984c23.7568 56.2176 35.84 115.9168 35.84 177.5616 0 61.5424-12.0832 121.344-35.84 177.5616-22.9376 54.272-55.808 103.1168-97.792 144.9984C791.2448 748.4416 742.4 781.312 688.128 804.2496 631.9104 828.0064 572.1088 840.0896 510.5664 840.0896zM510.5664 384m-310.0672 0a302.8 302.8 0 1 0 620.1344 0 302.8 302.8 0 1 0-620.1344 0Z"  horiz-adv-x="1024" />

    
    <glyph glyph-name="jt-left-2" unicode="&#59069;" d="M547.584 93.16351999999995c20.89984-20.89984 20.89984-54.80448 0-75.70432-20.89984-20.91008-54.79424-20.91008-75.70432 0l-328.704 328.69376c-10.4448 10.45504-15.6672 24.14592-15.6672 37.84704s5.23264 27.40224 15.6672 37.84704l328.704 328.69376c20.91008 20.91008 54.80448 20.91008 75.70432 0 20.89984-20.89984 20.89984-54.79424 0-75.70432L256.74752 384 547.584 93.16351999999995zM589.96736 384l290.83648 290.83648c20.89984 20.91008 20.89984 54.80448 0 75.70432-20.89984 20.91008-54.79424 20.91008-75.70432 0l-328.704-328.69376c-10.4448-10.45504-15.6672-24.14592-15.6672-37.84704s5.23264-27.40224 15.6672-37.84704l328.704-328.69376c20.91008-20.91008 54.80448-20.91008 75.70432 0 20.89984 20.89984 20.89984 54.80448 0 75.70432L589.96736 384z"  horiz-adv-x="1024" />

    
    <glyph glyph-name="duigou-primary" unicode="&#58898;" d="M378.410667 45.549037C364.491852 45.549037 350.610963 50.70696299999997 340.02963 61.06074100000001L20.920889 372.47051899999997C-0.279704 393.178074-0.279704 426.704593 20.920889 447.412148 42.121481 468.119704 76.48237 468.119704 97.682963 447.412148L378.410667 173.47318499999994 925.75763 707.508148C946.958222 728.215704 981.319111 728.215704 1002.519704 707.508148 1023.720296 686.838519 1023.720296 653.312 1002.519704 632.6044440000001L416.791704 61.06074100000001C406.172444 50.70696299999997 392.291556 45.549037 378.410667 45.549037L378.410667 45.549037Z"  horiz-adv-x="1024" />

    
    <glyph glyph-name="tuihui1" unicode="&#58920;" d="M531.2 896C480 896 428.8 889.6 384 870.4l19.2-57.6C441.6 832 486.4 838.4 531.2 838.4c236.8 0 435.2-192 435.2-435.2s-192-435.2-435.2-435.2-435.2 192-435.2 435.2c0 12.8 0 32 0 44.8C108.8 448 121.6 448 128 448c70.4 0 128 57.6 128 128s-57.6 128-128 128c-70.4 0-128-57.6-128-128 0-38.4 19.2-76.8 44.8-102.4C44.8 454.4 44.8 428.8 44.8 403.2c0-268.8 217.6-492.8 492.8-492.8S1024 134.4 1024 403.2C1024 678.4 806.4 896 531.2 896zM57.6 576c0 38.4 32 70.4 70.4 70.4 38.4 0 70.4-32 70.4-70.4S166.4 505.6 128 505.6c-6.4 0-12.8 0-19.2 0 0 0 0 0 0 0L96 512C76.8 524.8 57.6 550.4 57.6 576zM416 550.4C384 595.2 358.4 627.2 345.6 646.4L313.6 627.2c19.2-25.6 38.4-57.6 70.4-102.4L416 550.4zM467.2 300.8c0-12.8-6.4-25.6-12.8-32l32-38.4c6.4 6.4 19.2 12.8 25.6 19.2C544 256 576 275.2 608 288c0 12.8 0 25.6 0 38.4C569.6 307.2 537.6 294.4 505.6 281.6L505.6 416l179.2 0 0-12.8 38.4 0L723.2 633.6l-256 0L467.2 300.8zM505.6 601.6l179.2 0 0-57.6L505.6 544 505.6 601.6zM505.6 505.6l179.2 0L684.8 448 505.6 448 505.6 505.6zM281.6 204.8l19.2-44.8c25.6 32 44.8 57.6 64 70.4 25.6-38.4 64-57.6 121.6-57.6 96 0 192 0 288 0 6.4 12.8 12.8 32 12.8 38.4-102.4 0-198.4-6.4-294.4 0-51.2 0-83.2 19.2-102.4 51.2L390.4 473.6 288 473.6l0-38.4 57.6 0 0-172.8C332.8 256 307.2 236.8 281.6 204.8zM742.4 403.2C710.4 384 672 371.2 640 352 614.4 364.8 588.8 384 563.2 396.8L544 371.2c76.8-44.8 140.8-89.6 198.4-134.4L768 275.2c-25.6 12.8-57.6 32-89.6 57.6 32 12.8 64 25.6 96 38.4L742.4 403.2z"  horiz-adv-x="1024" />

    
    <glyph glyph-name="zonghe" unicode="&#59038;" d="M483.882616 412.242228 184.580902 412.242228c-60.681034 0-110.049418 49.367361-110.049418 110.049418L74.531484 711.543941c0 60.681034 49.367361 110.049418 110.049418 110.049418l189.252295 0c60.681034 0 110.049418-49.367361 110.049418-110.049418L483.882616 412.242228zM184.580902 781.575948c-38.614459 0-70.030983-31.416524-70.030983-70.030983l0-189.253318c0-38.614459 31.416524-70.030983 70.030983-70.030983l259.283278 0L443.86418 711.543941c0 38.614459-31.416524 70.030983-70.030983 70.030983L184.580902 781.574924zM840.875263 412.242228 539.619034 412.242228 539.619034 711.543941c0 60.681034 49.367361 110.049418 110.049418 110.049418L840.875263 821.59336c60.681034 0 110.049418-49.367361 110.049418-110.049418l0-189.253318C950.924681 461.609589 901.556297 412.242228 840.875263 412.242228zM579.636446 452.25964 840.875263 452.25964c38.614459 0 70.030983 31.416524 70.030983 70.030983L910.906246 711.543941c0 38.614459-31.416524 70.030983-70.030983 70.030983L649.667429 781.574924c-38.615483 0-70.030983-31.416524-70.030983-70.030983L579.636446 452.25964zM373.83422-54.798814 184.580902-54.798814c-60.681034 0-110.049418 49.367361-110.049418 110.049418L74.531484 246.458437c0 60.681034 49.367361 110.049418 110.049418 110.049418l299.301713 0 0-301.257252C483.882616-5.43043 434.515255-54.798814 373.83422-54.798814zM184.580902 316.490443c-38.614459 0-70.030983-31.416524-70.030983-70.030983l0-191.208856c0-38.614459 31.416524-70.030983 70.030983-70.030983l189.252295 0c38.614459 0 70.030983 31.416524 70.030983 70.030983l0 261.239839L184.580902 316.490443zM840.875263-54.798814 649.667429-54.798814c-60.681034 0-110.049418 49.367361-110.049418 110.049418L539.618011 356.507856 840.875263 356.507856c60.681034 0 110.049418-49.367361 110.049418-110.049418l0-191.208856C950.924681-5.43043 901.556297-54.798814 840.875263-54.798814zM579.636446 316.490443l0-261.239839c0-38.614459 31.4155-70.030983 70.030983-70.030983L840.875263-14.780379c38.614459 0 70.030983 31.416524 70.030983 70.030983L910.906246 246.458437c0 38.614459-31.416524 70.030983-70.030983 70.030983L579.636446 316.48942z"  horiz-adv-x="1024" />

    
    <glyph glyph-name="qiye2" unicode="&#59394;" d="M928 64L896 64 896 512c0 70.4-57.6 128-128 128L576 640 576 704c0 70.4-57.6 128-128 128L192 832C121.6 832 64 774.4 64 704l0-640L32 64C14.08 64 0 49.91999999999996 0 32 0 14.080000000000041 14.08 0 32 0l896 0c17.92 0 32 14.08 32 32C960 49.91999999999996 945.92 64 928 64zM512 640l0-64 0-512L128 64 128 704c0 35.2 28.8 64 64 64l256 0c35.2 0 64-28.8 64-64L512 640zM832 64L576 64 576 576l192 0c35.2 0 64-28.8 64-64L832 64zM416 640l-192 0C206.08 640 192 625.9200000000001 192 608 192 590.0799999999999 206.08 576 224 576l192 0C433.92 576 448 590.0799999999999 448 608 448 625.9200000000001 433.92 640 416 640zM416 448l-192 0C206.08 448 192 433.92 192 416 192 398.08 206.08 384 224 384l192 0C433.92 384 448 398.08 448 416 448 433.92 433.92 448 416 448zM416 256l-192 0C206.08 256 192 241.91999999999996 192 224S206.08 192 224 192l192 0C433.92 192 448 206.08000000000004 448 224S433.92 256 416 256zM736 448l-64 0C654.08 448 640 433.92 640 416 640 398.08 654.08 384 672 384l64 0C753.92 384 768 398.08 768 416 768 433.92 753.92 448 736 448zM736 256l-64 0c-17.92 0-32-14.08-32-32s14.08-32 32-32l64 0c17.92 0 32 14.08 32 32S753.92 256 736 256z"  horiz-adv-x="1024" />

    
    <glyph glyph-name="quanxian" unicode="&#58902;" d="M292.629467-1.188883l-130.195353 0c13.140905 181.370281 164.906541 324.909163 349.568956 324.909163 43.341143 0 84.868901-7.90849 123.218117-22.355196l39.267166 39.267166c-2.039547 0.902599-4.075001 1.810316-6.132968 2.681191-11.344917 4.798513-22.852547 9.048507-34.5014 12.760217 18.548315 10.670526 35.812318 23.852365 51.349922 39.389968 46.263846 46.263846 71.742322 107.774662 71.742322 173.201859 0 65.427197-25.478477 126.938013-71.742322 173.201859-46.263846 46.263846-107.774662 71.742322-173.201859 71.742322s-126.93699-25.478477-173.200835-71.742322c-46.263846-46.263846-71.742322-107.774662-71.742322-173.201859 0-65.427197 25.478477-126.938013 71.742322-173.201859 15.537603-15.537603 32.801607-28.718419 51.349922-39.389968-11.648853-3.71171-23.156483-7.961704-34.5014-12.760217-47.831626-20.231734-90.784918-49.188595-127.663572-86.068273-36.879678-36.879678-65.837562-79.831946-86.068273-127.664595-20.952176-49.535513-31.574604-102.140068-31.574604-156.352314 0-14.129466 11.453392-25.583882 25.583882-25.583882l156.702302 0c14.13049 0 25.583882 11.454416 25.583882 25.583882S306.758934-1.188883 292.629467-1.188883zM318.226653 568.664461c0 106.848525 86.926868 193.776417 193.776417 193.776417s193.776417-86.927891 193.776417-193.776417-86.927891-193.776417-193.776417-193.776417S318.226653 461.815936 318.226653 568.664461zM882.089276 129.579549c-18.228004 43.095538-43.561164 82.21227-75.36807 116.513093l-36.322973-36.322973c51.762334-56.496375 85.30485-129.945654 91.173793-210.958552l-130.22196 0c-14.129466 0-25.583882-11.454416-25.583882-25.583882s11.454416-25.583882 25.583882-25.583882l156.729932 0c14.129466 0 25.583882 11.454416 25.583882 25.583882C913.66388 27.439481 903.040429 80.044036 882.089276 129.579549zM791.547917 344.986626c-9.992041 9.991018-26.189708 9.991018-36.180726 0l-244.12038-244.12038L404.215104 207.896929c-9.992041 9.991018-26.189708 9.991018-36.180726 0-9.991018-9.991018-9.991018-26.189708 0-36.180726l125.122581-125.121557c4.996021-4.994997 11.542424-7.493007 18.090875-7.493007s13.094854 2.49801 18.090875 7.493007l262.211255 262.211255C801.538934 318.795895 801.538934 334.995609 791.547917 344.986626z"  horiz-adv-x="1025" />

    
    <glyph glyph-name="mimasuo" unicode="&#59466;" d="M768 512.704l-62.976 0L705.024 610.24C705.024 732.48 604.16 832 480.32 832c-123.84 0-224.64-99.52-224.64-221.76l0-97.536L192 512.704c-70.656 0-128-57.344-128-128l0-320c0-70.656 57.344-128 128-128l576 0c70.656 0 128 57.344 128 128l0 320C896 455.36 838.656 512.704 768 512.704zM319.872 610.24c0 87.296 72 158.4 160.448 158.4 88.512 0 160.512-71.04 160.512-158.4l0-97.536L319.872 512.704 319.872 610.24zM832 64.704c0-35.392-28.608-64-64-64L192 0.704c-35.392 0-64 28.608-64 64l0 320c0 35.392 28.608 64 64 64l576 0c35.392 0 64-28.608 64-64L832 64.704zM480 384.704c-52.992 0-96-28.608-96-64 0-27.84 26.816-51.264 64-60.096l0-99.904c0-17.664 14.336-32 32-32s32 14.336 32 32L512 260.608c37.184 8.832 64 32.256 64 60.096C576 356.032 532.992 384.704 480 384.704z"  horiz-adv-x="1024" />

    
    <glyph glyph-name="anjian3" unicode="&#58935;" d="M791.185 122.194c-17.431 0-21.48 21.479-21.48 21.479 0 14.746-4.698 21.479-21.479 21.479h-451.070c-17.452 0-21.479-4.699-21.479-21.479 0 0-3.545-21.479-21.48-21.479-41.365 0-64.439-43.295-64.439-85.919h665.866c-0 64.45-64.439 85.919-64.439 85.919zM284.632 305.4c3.241-3.074 7.384-4.595 11.506-4.595 4.436 0 8.852 1.752 12.134 5.223 6.356 6.691 6.083 17.273-0.629 23.619l-99.302 94.109c-6.702 6.346-17.285 6.062-23.64-0.64-6.356-6.691-6.072-17.273 0.629-23.619l99.302-94.098zM303.122 248.681c-1.499 9.103-10.1 15.27-19.203 13.771l-123.193-20.264c-9.103-1.49-15.281-10.1-13.781-19.204 1.343-8.191 8.442-14.002 16.488-14.002 0.902 0 1.804 0.073 2.727 0.231l123.183 20.252c9.114 1.511 15.28 10.111 13.78 19.216v0zM863.259 248.522l-249.574 232.311 89.736 89.6c8.264-8.265 21.669-8.265 29.933 0l0.829 0.839c8.275 8.254 8.275 21.658 0 29.912l-159.954 159.879c-8.264 8.254-21.669 8.254-29.933 0l-0.839-0.839c-8.264-8.264-8.264-21.658 0-29.922l0.042-0.042-223.521-223.322c-8.265 8.265-21.669 8.265-29.933 0l-0.839-0.829c-8.264-8.264-8.264-21.658 0-29.922l159.964-159.88c8.264-8.254 21.669-8.254 29.933 0l0.829 0.839c8.274 8.254 8.274 21.657 0 29.911l-0.042 0.042 89.683 89.642 232.438-249.448c16.718-17.945 45.014-18.448 62.361-1.101v0c17.347 17.339 16.844 45.613-1.112 62.332v0zM382.548 488.259c-3.419-3.419-8.977-3.419-12.418 0l-0.336 0.346c-3.44 3.43-3.44 8.989 0 12.408l179.587 179.503c3.43 3.429 8.989 3.429 12.419 0l0.346-0.346c3.419-3.419 3.419-8.977 0-12.408l-179.598-179.503zM382.548 488.259z"  horiz-adv-x="1024" />

    
    <glyph glyph-name="yonghu" unicode="&#58927;" d="M506.075809 349.023794c-145.260076 0-263.436846 118.16774-263.436846 263.418785 0 145.260076 118.17677 263.436846 263.436846 263.436846 145.260076 0 263.436846-118.16774 263.436846-263.436846C769.512655 467.200564 651.335885 349.023794 506.075809 349.023794zM506.075809 819.003581c-113.896181 0-206.561002-92.664821-206.561002-206.561002S392.179628 405.899638 506.075809 405.899638c113.905212 0 206.561002 92.646759 206.561002 206.54294S619.981021 819.003581 506.075809 819.003581zM514.754388 274.808854c-250.902125 0-455.024817-174.88103-455.024817-389.840656l28.437922 0c0 199.607302 190.991939 361.411765 426.586895 361.411765s426.586895-161.804462 426.586895-361.411765l20.156698 0 8.281224 0C969.788235 99.927824 765.647482 274.808854 514.754388 274.808854zM514.754388 217.942041c219.547262 0 398.148973-149.360049 398.148973-332.964812l28.437922 0c0 199.607302-190.991939 361.411765-426.586895 361.411765S88.167493 84.5755 88.167493-115.031802l28.437922 0C116.605415 68.572961 295.207126 217.942041 514.754388 217.942041z"  horiz-adv-x="1024" />

    
    <glyph glyph-name="wenjianjia" unicode="&#59240;" d="M912.486 443.959v0h-687.071c-25.518 0-47.091-16.669-54.521-39.729v0l-59.946-184.682v510.65h286.299c0-63.238 51.229-114.467 114.471-114.467v0h286.236v-114.469h57.229v114.469c0 31.588-25.639 57.236-57.229 57.236h-286.304c-31.586 0-57.234 25.645-57.234 57.231v0c0 31.589-25.58 57.234-57.234 57.234v0h-286.236c-31.587 0-57.234-25.646-57.234-57.234v-686.941c0-31.589 25.646-57.229 57.234-57.229h686.943c25.518 0 47.091 16.663 54.521 39.729h0.063l117.116 360.974c0.001 31.587-25.516 57.169-57.106 57.234v0zM800.864 43.253h-689.914l111.498 343.471h689.909l-111.494-343.471z"  horiz-adv-x="1024" />

    
    <glyph glyph-name="chart" unicode="&#58910;" d="M1189.611-128h-1174.553c-8.312 0-15.058 6.746-15.058 15.058v30.117c0 8.312 6.746 15.058 15.058 15.058h105.409v542.132c0 33.249 26.954 60.233 60.233 60.233h240.934v120.437c0 33.279 26.954 60.233 60.233 60.233h240.934v120.497c0 33.249 26.954 60.233 60.233 60.233h240.934c33.249 0 60.233-26.985 60.233-60.233v-903.532h105.409c8.312 0 15.058-6.746 15.058-15.058v-30.117c0-8.312-6.746-15.058-15.058-15.058zM421.634 474.365h-240.934v-542.132h240.934v542.132zM722.802 655.065h-240.934v-722.832h240.934v722.832zM1023.969 835.736h-240.934v-903.502h240.934v903.502z"  horiz-adv-x="1205" />

    
    <glyph glyph-name="jian" unicode="&#58966;" d="M821.12 88.96h-606.72v608h606.72v-608z m-574.72 32h542.72v544h-542.72v-544zM701.44 377.6h-368c-8.96 0-16 7.04-16 16s7.04 16 16 16h368c8.96 0 16-7.04 16-16S710.4 377.6 701.44 377.6z"  horiz-adv-x="1024" />

    
    <glyph glyph-name="jia" unicode="&#58967;" d="M821.12 88.96h-606.72v608h606.72v-608z m-574.72 32h542.72v544h-542.72v-544zM701.44 377.6h-368c-8.96 0-16 7.04-16 16s7.04 16 16 16h368c8.96 0 16-7.04 16-16S710.4 377.6 701.44 377.6zM517.76 200.32c-8.96 0-16 7.04-16 16v353.92c0 8.96 7.04 16 16 16s16-7.04 16-16v-353.92c0-8.32-7.04-16-16-16z"  horiz-adv-x="1024" />

    
    <glyph glyph-name="wenjian" unicode="&#58913;" d="M910.096853 535.420353v61.707521c0 52.999376-42.030493 112.28336-98.281728 112.28336H528.430288l-11.681508 22.048347c-11.685603 22.352441-34.588894 36.229158-59.807189 36.229158H154.570848c-50.436591 0-91.447294-42.168717-91.447294-94.010079v-575.540275c0-51.814741 41.010703-93.969123 91.447294-93.969124h711.539892c50.436591 0 91.447294 42.154383 91.447294 93.969124V451.385989c-0.001024 30.633625-20.252452 63.054954-47.461181 84.034364z m-98.281728 117.546131c19.540851 0 41.838002-29.75206 41.838002-55.83861v-39.040748c-0.956309 0.038908-1.913642 0.097269-2.865855 0.097269H608.55341l-50.21748 94.782089h253.479195z m89.297134-554.828099c0-20.684531-15.709473-37.524373-35.002543-37.524374h-711.538868c-19.292047 0-35.002544 16.839842-35.002544 37.524374V673.67866c0 20.712176 15.709473 37.565329 35.002544 37.565329h302.370743c4.134449 0 7.882893-2.274049 9.867182-6.07676l99.825748-188.420497a28.252068 28.252068 0 0 1 24.94287-15.007087h259.209881c20.229926 0 50.326011-30.12373 50.326011-50.353656v-353.247604z"  horiz-adv-x="1024" />

    
    <glyph glyph-name="daiban" unicode="&#58921;" d="M120.759083 3.4679V768.352217c0 4.252196 3.447422 7.713952 7.699618 7.713952h643.527285c4.252196 0 7.713952-3.461756 7.713952-7.713952V459.760347h55.82018V768.352217c0 35.024045-28.495752 63.534132-63.534132 63.534132H128.458701c-35.024045 0-63.519798-28.510087-63.519798-63.534132v-764.884317c0-35.024045 28.495752-63.534132 63.519798-63.534133h360.269409v55.820181H128.458701c-4.252196 0-7.699618 3.461756-7.699618 7.713952zM287.660582 343.213528c-15.41357 0-27.91009-12.48321-27.91009-27.91009s12.49652-27.91009 27.91009-27.91009h111.449918c15.41357 0 27.91009 12.48321 27.91009 27.91009s-12.49652 27.91009-27.91009 27.91009h-111.449918zM636.53722 466.300926c0 15.42688-12.49652 27.91009-27.91009 27.91009H287.660582c-15.41357 0-27.91009-12.48321-27.91009-27.91009s12.49652-27.91009 27.91009-27.91009h320.966548c15.41357 0 27.91009 12.48321 27.91009 27.91009zM608.62713 639.704097H287.660582c-15.41357 0-27.91009-12.48321-27.91009-27.91009s12.49652-27.91009 27.91009-27.91009h320.966548c15.41357 0 27.91009 12.48321 27.91009 27.91009s-12.49652 27.91009-27.91009 27.91009zM820.392212 177.251956h-55.643048v90.271873c0 15.42688-12.49652 27.91009-27.91009 27.91009s-27.91009-12.48321-27.91009-27.91009v-118.181963c0-15.42688 12.49652-27.91009 27.91009-27.91009H820.393236c15.41357 0 27.91009 12.48321 27.91009 27.91009-0.001024 15.42688-12.497544 27.91009-27.911114 27.91009zM738.670805 380.874078c-121.258739 0-219.559921-98.300158-219.559921-219.559921 0-121.259763 98.300158-219.560945 219.559921-219.560945 121.259763 0 219.560945 98.300158 219.560945 219.560945 0 121.259763-98.301182 219.559921-219.560945 219.559921z m0-383.299662c-90.286208 0-163.739741 73.453533-163.739741 163.740765 0 90.286208 73.453533 163.739741 163.739741 163.739741 90.286208 0 163.739741-73.453533 163.739741-163.739741 0.001024-90.287232-73.452509-163.740765-163.739741-163.740765z"  horiz-adv-x="1024" />

    
    <glyph glyph-name="bq-left" unicode="&#59087;" d="M731.932616 831.335498c5.96106 0 11.89038-2.422513 16.19377-7.204057 8.03340399-8.94671 7.310541-22.696466-1.62593-30.728846l-438.64680799-394.636121c-4.99451301-4.505095-7.725215-10.667861-7.70371302-17.383525s2.794183-12.87843 7.82043602-17.340522L746.394996-25.516246000000024c8.989713-7.968899 9.796535-21.71865601 1.817396-30.708369-7.990401-8.989713-21.740157-9.818036-30.718607-1.80613401L279.058921 331.52587700000004c-14.19617 12.601981-22.37803799 30.728846-22.430255 49.706561a66.852545 66.852545 0 0 0 22.11182699 49.876526l438.64680801 394.636121a21.694082 21.694082 0 0 0 14.545315 5.590413z"  horiz-adv-x="1024" />

    
    <glyph glyph-name="duigou" unicode="&#58969;" d="M997.888 825.856C686.592 634.88 460.8 393.728 358.912 272.89599999999996l-248.832 195.072-110.08-88.576 429.568-437.248c73.728 189.44 308.224 559.616 594.432 822.784l-26.112 60.928m0 0z"  horiz-adv-x="1024" />

    
    <glyph glyph-name="check-square" unicode="&#58886;" d="M1023.975 312.735v-231.267c0-57.695-20.484-107.028-61.453-147.996-40.969-40.969-90.3-61.453-147.996-61.453H209.449c-57.695 0-107.027 20.484-147.996 61.453C20.484-25.559999999999945 0 23.772000000000048 0 81.46799999999996V686.544C0 744.24 20.484 793.572 61.453 834.5409999999999 102.422 875.509 151.753 895.994 209.45 895.994h605.077c30.544 0 58.907-6.06 85.089-18.182 7.272-3.393 11.636-8.97 13.09-16.726 1.455-8.243-0.727-15.273-6.545-21.09L870.524 804.36c-4.848-4.849-10.424-7.273-16.727-7.273-1.454 0-3.636 0.485-6.545 1.455-11.151 2.909-22.06 4.363-32.726 4.363H209.449c-31.999 0-59.392-11.394-82.18-34.18-22.787-22.788-34.18-50.181-34.18-82.18v-605.077c0-32 11.393-59.392 34.18-82.18 22.788-22.787 50.181-34.18 82.18-34.18h605.077c31.999 0 59.392 11.393 82.18 34.18 22.787 22.788 34.18 50.18 34.18 82.18V266.19100000000003c0 6.303 2.182 11.636 6.546 16l46.544 46.544c4.849 4.848 10.424 7.272 16.727 7.272 2.91 0 5.818-0.727 8.727-2.181 9.697-3.88 14.545-10.91 14.545-21.09z m167.996 355.628L599.985 76.37699999999995c-11.636-11.636-25.453-17.454-41.453-17.454-16 0-29.818 5.818-41.454 17.454l-312.72 312.72c-11.635 11.636-17.453 25.454-17.453 41.454s5.818 29.817 17.454 41.453l79.998 79.998c11.636 11.636 25.454 17.454 41.453 17.454 16 0 29.818-5.818 41.454-17.454l191.268-191.268 470.534 470.534c11.636 11.636 25.454 17.454 41.453 17.454 16 0 29.818-5.818 41.454-17.454l79.998-79.998c11.636-11.636 17.454-25.454 17.454-41.454s-5.818-29.817-17.454-41.453z m0 0"  horiz-adv-x="1210" />

    
    <glyph glyph-name="qiyong" unicode="&#58947;" d="M512 844.8c-253.44 0-460.8-207.36-460.8-460.8s207.36-460.8 460.8-460.8 460.8 207.36 460.8 460.8-207.36 460.8-460.8 460.8z m0-870.4c-225.28 0-409.6 184.32-409.6 409.6s184.32 409.6 409.6 409.6 409.6-184.32 409.6-409.6-184.32-409.6-409.6-409.6zM719.36 404.48l-307.2 204.8c-7.68 5.12-17.92 5.12-25.6 0-7.68-5.12-12.8-12.8-12.8-23.04v-409.6c0-10.24 5.12-17.92 12.8-23.04 2.56-2.56 7.68-2.56 12.8-2.56s10.24 2.56 15.36 5.12l307.2 204.8c7.68 5.12 10.24 12.8 10.24 20.48s-7.68 17.92-12.8 23.04z m-296.96-176.64v314.88l235.52-156.16-235.52-158.72z"  horiz-adv-x="1024" />

    
    <glyph glyph-name="qiyejianjie" unicode="&#58960;" d="M391.137882 759.702588C179.651765 759.702588 7.589647 587.640471 7.589647 376.154353S179.651765-7.378824 391.137882-7.378824s383.548235 172.047059 383.548236 383.533177-172.062118 383.548235-383.548236 383.548235z m0-736.963764c-194.876235 0-353.430588 158.539294-353.430588 353.415529s158.539294 353.430588 353.430588 353.430588 353.430588-158.539294 353.430589-353.430588c0-194.861176-158.554353-353.415529-353.430589-353.415529zM311.265882 455.966118c14.125176 11.595294 34.379294 31.563294 42.420706 39.604706a764.340706 764.340706 0 0 1 40.417883 44.15247 397.643294 397.643294 0 0 1 31.412705-34.017882l19.305412-19.380706c9.562353-9.728 20.389647-20.736 28.973177-28.521412 38.716235-35.072 91.723294-66.228706 93.952-67.538823a15.043765 15.043765 0 0 1 15.209411 25.991529c-0.512 0.301176-52.510118 30.870588-88.922352 63.864471-7.936 7.198118-18.462118 17.889882-27.738353 27.301647l-19.576471 19.651764c-12.890353 12.784941-16.730353 16.64-33.189647 36.321883l0.316235 0.391529a15.058824 15.058824 0 1 1-23.762823 18.492235c-0.286118-0.346353-27.542588-35.297882-57.690353-65.445647-16.097882-16.097882-31.126588-30.162824-40.237177-37.616941-34.590118-28.385882-100.487529-78.396235-101.150117-78.893176a15.058824 15.058824 0 0 1 18.221176-24.003765c0.662588 0.542118 67.011765 50.898824 102.038588 79.646118zM577.249882 258.514824h-150.588235v90.352941h90.352941a15.058824 15.058824 0 1 1 0 30.117647h-90.352941v60.235294a15.058824 15.058824 0 1 1-30.117647 0v-180.705882h-60.235294v90.352941a15.058824 15.058824 0 1 1-30.117647 0v-90.352941h-90.352941a15.058824 15.058824 0 1 1 0-30.117648h361.411764a15.058824 15.058824 0 1 1 0 30.117648zM697.720471 710.279529h195.764705a15.058824 15.058824 0 1 1 0 30.117647h-195.764705a15.058824 15.058824 0 1 1 0-30.117647zM998.896941 409.103059h-150.588235a15.058824 15.058824 0 1 1 0-30.117647h150.588235a15.058824 15.058824 0 1 1 0 30.117647zM788.073412 559.691294a15.058824 15.058824 0 0 1 15.058823-15.058823h180.705883a15.058824 15.058824 0 1 1 0 30.117647h-180.705883a15.058824 15.058824 0 0 1-15.058823-15.058824zM893.485176 62.750118h-195.764705a15.058824 15.058824 0 1 1 0-30.117647h195.764705a15.058824 15.058824 0 1 1 0 30.117647zM983.838118 243.456h-180.705883a15.058824 15.058824 0 1 1 0-30.117647h180.705883a15.058824 15.058824 0 1 1 0 30.117647z"  horiz-adv-x="1024" />

    
    <glyph glyph-name="menu-open" unicode="&#58885;" d="M0 896h1024v-146.285714H0zM1024 310.85714299999995H73.142857l73.142857 146.285714h877.714286v-146.285714zM0 18.285713999999984h1024v-146.285714H0zM292.571429 384v-292.571429L146.285714 237.71428600000002 0 384l146.285714 146.285714 146.285715 146.285715v-292.571429z"  horiz-adv-x="1024" />

    
    <glyph glyph-name="menu-close" unicode="&#58890;" d="M1024 749.714286H0V896h1024zM0 310.85714299999995h950.857143l-73.142857 146.285714H0v-146.285714zM1024-128H0v146.285714h1024zM731.428571 384v-292.571429l146.285715 146.285715 146.285714 146.285714-146.285714 146.285714-146.285715 146.285715v-292.571429z"  horiz-adv-x="1024" />

    
    <glyph glyph-name="file-close" unicode="&#58911;" d="M1052.233143-127.12228600000003H116.882286c-66.194286 0-116.882286 51.2-116.882286 117.979429V777.508571C0 844.288 50.688 895.414857 116.882286 895.414857h350.793143c66.267429 0 116.882286-51.2 116.882285-117.979428 0-23.625143 15.579429-39.350857 38.985143-39.350858h428.690286c66.267429 0 116.882286-51.126857 116.882286-117.979428v-629.248c0-66.852571-50.614857-117.979429-116.882286-117.979429zM116.882286 816.713143c-23.405714 0-38.912-15.725714-38.912-39.277714v-786.578286c0-23.552 15.579429-39.350857 38.912-39.350857h935.350857c23.405714 0 38.985143 15.798857 38.985143 39.350857V620.105143c0 23.625143-15.579429 39.350857-38.985143 39.350857H623.542857c-66.267429 0-116.882286 51.126857-116.882286 117.979429 0 23.552-15.652571 39.277714-38.985142 39.277714H116.882286zM1130.203429 423.497143H38.912C15.652571 423.497143 0 439.222857 0 462.774857c0 23.625143 15.579429 39.350857 38.985143 39.350857h1091.218286c23.405714 0 38.912-15.725714 38.912-39.350857 0-23.552-15.579429-39.277714-38.912-39.277714"  horiz-adv-x="1170" />

    
    <glyph glyph-name="file-open" unicode="&#58912;" d="M1185.206857 598.308571v48.786286c0 71.021714-61.44 128.877714-136.850286 128.877714H556.397714L416.182857 895.707429H137.362286C61.878857 895.707429 0.438857 837.924571 0.438857 766.829714v-765.659428c0-71.021714 61.44-128.804571 136.923429-128.804572h910.994285a14.262857 14.262857 0 0 1 1.828572 0.146286h0.512c70.948571 2.267429 128.950857 56.32 131.949714 122.660571l132.681143 599.405715 0.804571 3.730285h-130.925714z m18.578286-86.016l-111.177143-502.272a39.643429 39.643429 0 0 1-0.731429-5.924571v-0.877714a13.165714 13.165714 0 0 1-0.219428-1.974857 41.325714 41.325714 0 0 0-13.385143-30.354286 46.738286 46.738286 0 0 0-32.182857-12.580572H265.874286l114.395428 553.984h823.515429zM91.794286 766.829714c0 23.625143 20.48 42.861714 45.568 42.861715h243.565714l140.141714-119.734858h527.286857c25.088 0 45.494857-19.236571 45.494858-42.861714v-48.786286H305.005714l-132.169143-640h-35.401142c-25.161143 0-45.568 19.236571-45.568 42.934858V766.829714z"  horiz-adv-x="1316" />

    
    <glyph glyph-name="biaodan" unicode="&#58981;" d="M898.104 727h-111.52a21.848 21.848 0 0 1-21.832-21.952 21.856 21.856 0 0 1 21.832-21.952h111.512v-737.168H124.68V683.16h113.216a21.96 21.96 0 0 1 21.952 21.952 21.896 21.896 0 0 1-21.952 21.888H124.68a43.88 43.88 0 0 1-43.84-43.84v-737.168a43.864 43.864 0 0 1 43.84-43.784h773.472a43.856 43.856 0 0 1 43.784 43.784V683.16c-0.056 24.184-19.712 43.84-43.832 43.84z m-560.752-45.192h348.024c12.12 0 21.944 9.832 21.944 21.888s-9.832 21.952-21.944 21.952h-67.2c0.288 2.944 0.768 5.88 0.768 8.888 0 59.32-48.256 107.568-107.576 107.568-59.264 0-107.576-48.256-107.576-107.568 0-3.064 0.472-5.944 0.824-8.888h-67.264c-12.12 0-21.952-9.832-21.952-21.952s9.832-21.888 21.952-21.888z m110.28 52.728c0 35.128 28.6 63.728 63.728 63.728 35.184 0 63.664-28.6 63.664-63.728 0-3.12-0.704-5.944-1.12-8.888h-125.04c-0.472 2.944-1.232 5.768-1.232 8.888zM291.04 467.368h440.752a21.936 21.936 0 0 1 21.888 21.952 21.88 21.88 0 0 1-21.888 21.888H291.04a21.896 21.896 0 0 1-21.952-21.888 21.952 21.952 0 0 1 21.952-21.952z m0-188.424h440.752a21.968 21.968 0 0 1 21.888 21.944 21.976 21.976 0 0 1-21.888 21.952H291.04a21.944 21.944 0 1 1 0-43.896z m0-188.368h440.752c12.064 0 21.888 9.888 21.888 21.952s-9.832 21.944-21.888 21.944H291.04a21.944 21.944 0 1 1 0-43.896z"  horiz-adv-x="1024" />

    
    <glyph glyph-name="check-square-o" unicode="&#58941;" d="M196.923077 896h630.153846a196.923077 196.923077 0 0 0 196.923077-196.923077v-630.153846a196.923077 196.923077 0 0 0-196.923077-196.923077H196.923077a196.923077 196.923077 0 0 0-196.923077 196.923077V699.076923a196.923077 196.923077 0 0 0 196.923077 196.923077z m0-78.769231a118.153846 118.153846 0 0 1-118.153846-118.153846v-630.153846a118.153846 118.153846 0 0 1 118.153846-118.153846h630.153846a118.153846 118.153846 0 0 1 118.153846 118.153846V699.076923a118.153846 118.153846 0 0 1-118.153846 118.153846H196.923077z m584.900923-258.205538a36.509538 36.509538 0 0 0 1.260308-51.633231l-299.480616-313.107692c-0.118154-0.157538-0.393846-0.236308-0.630154-0.472616l-0.393846-0.551384c-2.166154-2.126769-4.726154-3.229538-7.207384-4.726154-1.575385-0.866462-2.796308-2.166154-4.411077-2.835692a35.800615 35.800615 0 0 0-27.490462-0.07877c-1.260308 0.512-2.284308 1.614769-3.544615 2.284308-2.756923 1.457231-5.592615 2.835692-8.034462 5.12-0.196923 0.157538-0.275692 0.433231-0.512 0.669538-0.196923 0.118154-0.393846 0.196923-0.551384 0.354462l-150.843077 156.593231a36.430769 36.430769 0 0 0 0.945231 51.633231 36.391385 36.391385 0 0 0 51.63323-0.945231l124.455385-129.102769 273.092923 285.61723a36.548923 36.548923 0 0 0 51.712 1.181539z"  horiz-adv-x="1024" />

    
    <glyph glyph-name="square-o" unicode="&#58942;" d="M196.923077 817.230769a118.153846 118.153846 0 0 1-118.153846-118.153846v-630.153846a118.153846 118.153846 0 0 1 118.153846-118.153846h630.153846a118.153846 118.153846 0 0 1 118.153846 118.153846V699.076923a118.153846 118.153846 0 0 1-118.153846 118.153846H196.923077z m0 78.769231h630.153846a196.923077 196.923077 0 0 0 196.923077-196.923077v-630.153846a196.923077 196.923077 0 0 0-196.923077-196.923077H196.923077a196.923077 196.923077 0 0 0-196.923077 196.923077V699.076923a196.923077 196.923077 0 0 0 196.923077 196.923077z"  horiz-adv-x="1024" />

    
    <glyph glyph-name="minus-2" unicode="&#58903;" d="M512 822.856c242.288 0 438.856-196.568 438.856-438.856 0-242.288-196.568-438.856-438.856-438.856-242.288 0-438.856 196.568-438.856 438.856C73.144 626.288 269.712 822.856 512 822.856M512 896C229.488 896 0 666.512 0 384s229.488-512 512-512 512 229.488 512 512S794.512 896 512 896z m320-464H192v-96h640V432z"  horiz-adv-x="1024" />

    
    <glyph glyph-name="circle-o" unicode="&#59522;" d="M511.999488 848.113363C255.676635 848.113363 47.886125 640.322853 47.886125 384c0-256.323876 207.79051-464.113363 464.113363-464.113363 256.323876 0 464.113363 207.789487 464.113363 464.113363 0 256.322853-207.789487 464.113363-464.113363 464.113363z m0-884.025015c-231.540424 0-419.912675 188.372252-419.912675 419.912675S280.458041 803.912675 511.999488 803.912675s419.912675-188.372252 419.912676-419.912675-188.372252-419.911652-419.912676-419.911652z"  horiz-adv-x="1024" />

    
    <glyph glyph-name="sub" unicode="&#58905;" d="M903.053 325.25h-782.007c-32.391 0-58.649 26.256-58.649 58.647s26.256 58.661 58.649 58.661h782.009c32.406 0 58.649-26.27 58.649-58.661-0.001-32.393-26.245-58.647-58.649-58.647z"  horiz-adv-x="1024" />

    
    <glyph glyph-name="tuichu" unicode="&#58889;" d="M512 310.857143c20.114286 0 36.571429 16.603429 36.571429 36.937143V859.062857A36.864 36.864 0 0 1 512 896c-20.114286 0-36.571429-16.603429-36.571429-36.937143v-511.268571c0-20.333714 16.457143-36.937143 36.571429-36.937143zM921.014857 577.097143a475.428571 475.428571 0 0 1-174.153143 167.936 36.278857 36.278857 0 0 1-48.786285-13.531429 35.108571 35.108571 0 0 1 13.238857-47.762285 395.337143 395.337143 0 0 0 204.361143-344.795429c0-219.062857-180.882286-396.434286-403.821715-396.288-223.085714 0.146286-403.748571 177.590857-403.529143 396.653714 0 70.948571 19.529143 140.726857 56.32 201.874286a399.579429 399.579429 0 0 0 148.041143 142.555429 34.962286 34.962286 0 0 1 13.824 47.908571 36.278857 36.278857 0 0 1-48.786285 13.604571l-0.585143-0.365714C128.438857 661.869714 36.571429 506.806857 36.571429 338.724571 36.717714 80.822857 249.709714-128 512.146286-128 774.802286-127.853714 987.428571 81.334857 987.428571 339.090286c0 84.114286-22.966857 166.180571-66.413714 238.08z"  horiz-adv-x="1024" />

    
    <glyph glyph-name="dingwei" unicode="&#58891;" d="M463.67072-104.704a62.72 62.72 0 0 1 48.512-23.296 62.72 62.72 0 0 1 48.64 23.296l13.952 16.128c11.328 13.312 24 28.48 37.76 45.952a2445.44 2445.44 0 0 1 114.304 151.296 1586.56 1586.56 0 0 1 94.464 152.192C869.30272 350.272 895.99072 427.712 895.99072 490.688a408.512 408.512 0 0 1-110.784 284.928A381.76 381.76 0 0 1 512.11872 896C297.97472 893.824 126.00672 712.64 127.99072 491.2c0-63.68 26.688-141.44 74.88-229.888 28.736-52.48 60.224-103.232 94.528-151.936 36.48-52.48 75.328-103.68 114.432-151.552 13.568-16.768 26.496-31.936 37.76-45.952l14.528-16.576h-0.448z m34.176 33.344l-14.208 15.872a3066.496 3066.496 0 0 0-36.864 44.16 1864.832 1864.832 0 0 0-111.168 148.48 1540.928 1540.928 0 0 0-92.224 147.392C198.90272 367.296 174.71072 437.76 174.71072 491.392 172.98272 685.952 324.02272 845.12 512.11872 847.04a335.36 335.36 0 0 0 240-105.6 358.848 358.848 0 0 0 97.408-250.24c0-53.376-24.256-123.904-68.48-206.912a1537.792 1537.792 0 0 0-91.776-146.88 2831.808 2831.808 0 0 0-111.168-148.288c-13.312-16.32-25.792-31.296-36.864-44.16l-13.824-15.872a17.792 17.792 0 0 0-14.08-7.04 17.792 17.792 0 0 0-14.08 7.04l-1.408-0.448zM753.71872 401.472A223.36 223.36 0 0 1 767.99072 480a219.712 219.712 0 0 1-64.768 157.504A228.48 228.48 0 0 1 543.86272 704C419.06272 702.72 318.83872 602.496 319.99072 480 318.83872 357.504 418.99872 257.28 543.86272 256c36.8-0.064 72.96 8.96 105.28 26.112a24.96 24.96 0 0 1 10.24 33.536 23.68 23.68 0 0 1-14.528 12.544 24.192 24.192 0 0 1-19.2-2.24 173.312 173.312 0 0 0-81.792-20.288 177.728 177.728 0 0 0-166.4 105.152 171.648 171.648 0 0 0 36.352 190.848 180.032 180.032 0 0 0 193.92 39.232A174.144 174.144 0 0 0 718.07072 479.744c0-20.8-3.648-41.472-10.88-61.056-4.928-12.736 1.536-26.88 14.464-31.936 6.208-2.56 13.248-2.496 19.392 0.32a23.424 23.424 0 0 1 12.672 14.4z"  horiz-adv-x="1024" />

    
    <glyph glyph-name="close" unicode="&#58893;" d="M76.458667-110.250667a42.439111 42.439111 0 0 0-59.960889 59.960889L451.697778 384.910222 13.425778 823.182222A42.439111 42.439111 0 0 0 73.386667 883.256889l438.272-438.272L950.272 883.484444a42.439111 42.439111 0 0 0 59.960889-59.960888L571.733333 384.910222 1007.274667-50.631111a42.439111 42.439111 0 0 0-60.074667-59.960889L511.658667 324.835556 76.458667-110.250667z"  horiz-adv-x="1024" />

    
    <glyph glyph-name="search" unicode="&#58894;" d="M434.403556 27.648000000000025C195.128889 27.648000000000025 0.568889 222.26488900000004 0.568889 461.482667S195.128889 895.260444 434.403556 895.260444s433.777778-194.56 433.777777-433.777777-194.56-433.834667-433.777777-433.834667z m0 808.846222a375.466667 375.466667 0 0 1-375.011556-375.011555 375.466667 375.466667 0 0 1 375.011556-375.011556 375.466667 375.466667 0 0 1 375.068444 375.011556 375.466667 375.466667 0 0 1-375.068444 375.011555zM994.019556-110.02311099999997a29.297778 29.297778 0 0 0-20.48 8.305778l-269.084445 260.778666a29.411556 29.411556 0 0 0 40.96 42.211556l269.084445-260.835556a29.411556 29.411556 0 0 0-20.48-50.460444z"  horiz-adv-x="1024" />

    
    <glyph glyph-name="editpen" unicode="&#58895;" d="M861.265241 456.777482c-0.398207-0.455094-2.27547 0.739528-4.209619 2.673677l-267.765884 268.107204c-1.877262 1.877262-3.071884 3.811412-2.673677 4.266506l60.299944 60.356831c0.455094 0.455094 2.332356-0.739528 4.266506-2.673677l267.708998-268.107205c1.934149-1.934149 3.128771-3.811412 2.673676-4.266505L861.265241 456.834368z m132.034123 284.206152L869.229385 865.338047c-31.23082 31.287707-76.228231 38.91053-110.018955 21.616961-7.110842-3.697638-13.652818-8.419237-19.569039-14.278571l-36.976381-37.033268c-2.673677-2.673677-5.119807-5.518014-7.281502-8.533011 0.398207-0.568867 0.967075-1.137735 1.535942-1.706602l256.67297-257.071177c0.568867-0.568867 1.137735-1.080848 1.706602-1.479056 2.901224 2.27547 5.745561 4.664713 8.419238 7.33839l36.97638 37.033267c5.916221 5.859334 10.63782 12.515083 14.221685 19.625926 17.350456 33.790723 9.670746 78.845021-21.560074 110.132728zM380.799836-22.720848000000046c-1.706602-6.086881 434.045825 430.973941 434.045825 430.973941 3.014997 3.071884 5.23358 5.916221 4.835373 6.314428l-56.659193 56.716079c-0.398207 0.455094-3.242544-1.706602-6.314428-4.835372l-427.219416-428.357151c-0.17066-0.227547-9.670746-5.802447-9.841406-5.973108 0 0-164.459565-47.784861-168.612297-48.069295-3.413204-0.227547-20.877434 19.569039-20.877433 19.569038S113.77348 18.237604000000033 113.77348 21.707694999999944s52.222027 179.762098 52.222027 179.762098l425.114607 428.414038c3.128771 3.071884 5.290467 5.916221 4.949146 6.257541l-53.018442 53.075329c-0.34132 0.398207-3.185657-1.820376-6.257541-4.89226L104.045847 250.90436999999997a39.820718 39.820718 0 0 1-6.655748-8.36235l-91.018784-307.302169a41.186 41.186 0 0 1 55.862778-57.455607c0.682641-0.113773 2.104809 0 3.640752 0.51198 0 0 294.104445 86.297184 298.826044 90.108596l16.098947 8.817445z m332.502995 543.666572l-70.539558 70.539558c-0.455094 0.568867-3.413204-1.535942-6.428201-4.55094l-427.276303-427.958943a21.730735 21.730735 0 0 1-4.550939-5.859334l57.740041-12.970177a9.556972 9.556972 0 0 0 6.086881-8.02103l7.67971-49.946558a26.736768 26.736768 0 0 1 5.347353 4.380279l427.33319 427.902057c3.014997 3.071884 5.119807 5.973108 4.550939 6.485088z"  horiz-adv-x="1024" />

    
    <glyph glyph-name="delete" unicode="&#58896;" d="M316.472889 64c17.635556 0 31.971556 14.336 31.971555 32.028444V448a31.971556 31.971556 0 1 1-64 0v-351.971556c0-17.692444 14.336-32.028444 31.971556-32.028444z m192 0c17.635556 0 31.971556 14.336 31.971555 32.028444V448a31.971556 31.971556 0 1 1-64 0v-351.971556c0-17.692444 14.336-32.028444 32.028445-32.028444z m191.943111 0c17.692444 0 32.028444 14.336 32.028444 32.028444V448a31.971556 31.971556 0 1 1-64 0v-351.971556c0-17.692444 14.336-32.028444 32.028445-32.028444z m160.028444 736.028444h-132.551111A127.886222 127.886222 0 0 1 604.444444 896H412.444444C352.995556 896 303.274667 855.04 288.995556 800.028444H156.444444C85.902222 800.028444 28.444444 742.570667 28.444444 672.028444V640h32.028445v-32.028444h64V0c0-70.542222 57.400889-128 128-128h512c70.542222 0 128 57.457778 128 128V608.028444h63.943111V640h32.028444v32.028444c0 70.542222-57.457778 128-128 128zM412.444444 832h192c23.552 0 43.975111-12.970667 55.068445-31.971556H357.376c11.093333 19.000889 31.516444 31.971556 55.068444 31.971556z m415.971556-832c0-35.271111-28.672-64-63.943111-64h-512c-35.271111 0-68.437333 28.672-68.437333 64l4.380444 608.028444h640V0zM92.444444 672.028444c0 35.271111 28.728889 64 64 64h704c35.271111 0 64-28.728889 64-64H92.444444z"  horiz-adv-x="1024" />

    
    <glyph glyph-name="file" unicode="&#58897;" d="M854.698667 896H149.447111C114.062222 896 85.333333 867.328 85.333333 832v-896C85.333333-99.27111100000002 114.062222-128 149.447111-128h470.812445c17.066667 0 33.28 6.769778 45.283555 18.773333l234.496 234.040889c12.003556 11.946667 18.773333 28.216889 18.773333 45.112889V832c0 35.271111-28.728889 64-64.113777 64z m-192.284445-917.959111v117.930667c0 17.749333 14.222222 32.028444 32.028445 32.028444h118.158222l-150.186667-149.959111z m192.284445 213.959111h-192.284445c-35.441778 0-64.170667-28.672-64.170666-64v-192H181.532444a31.971556 31.971556 0 0 0-32.085333 32.028444V799.971556c0 17.635556 14.336 31.971556 32.085333 31.971555h641.137778c17.749333 0 32.028444-14.279111 32.028445-32.028444v-607.971556zM695.978667 705.479111H308.167111a32.256 32.256 0 1 1 0-64.625778h387.811556a32.256 32.256 0 1 1 0 64.625778z m0-193.877333H308.167111a32.256 32.256 0 1 1 0-64.682667h387.811556a32.256 32.256 0 1 1 0 64.682667z m0-193.991111H308.167111a32.256 32.256 0 1 1 0-64.568889h387.811556a32.256 32.256 0 1 1 0 64.625778z"  horiz-adv-x="1024" />

    
    <glyph glyph-name="tingyong" unicode="&#59099;" d="M512-128C230.4-128 0 102.39999999999998 0 384S230.4 896 512 896s512-230.4 512-512-230.4-512-512-512z m0 960C265.6 832 64 630.4 64 384s201.6-448 448-448 448 201.6 448 448S758.4 832 512 832zM640 192h-256c-35.2 0-64 28.8-64 64v256c0 35.2 28.8 64 64 64h256c35.2 0 64-28.8 64-64v-256c0-35.2-28.8-64-64-64z m-256 320v-256h256v256h-256z"  horiz-adv-x="1024" />

    
    <glyph glyph-name="shezhi" unicode="&#58919;" d="M989.207237 263.75876900000003l-79.202462 46.08c4.450462 24.142769 7.364923 48.836923 7.364923 74.358154 0 25.481846-2.914462 50.215385-7.364923 74.397539l79.163077 46.08a68.371692 68.371692 0 0 1 24.812308 93.026461l-67.662769 117.996308a67.347692 67.347692 0 0 1-92.396308 24.930461l-80.029538-46.473846c-37.376 32.019692-79.872 58.171077-127.094154 75.027692V827.076923c0 37.612308-30.286769 68.135385-67.623385 68.135385H443.887852c-37.376 0-67.623385-30.523077-67.623384-68.135385V769.181538c-47.261538-16.856615-89.757538-43.008-127.133539-75.067076L169.140775 740.627692a67.387077 67.387077 0 0 1-92.396307-24.930461L9.081698 597.700923A68.371692 68.371692 0 0 1 33.894006 504.635077l79.163077-46.08a409.560615 409.560615 0 0 1-7.325538-74.358154c0-25.521231 2.914462-50.215385 7.364923-74.397538l-79.202462-46.08a68.371692 68.371692 0 0 1-24.772923-93.026462l67.662769-117.996308a67.347692 67.347692 0 0 1 92.396308-24.930461l79.990154 46.473846c37.415385-32.019692 79.872-58.210462 127.133538-75.027692v-57.816616c0-37.651692 30.247385-68.135385 67.623385-68.135384h135.286154c37.336615 0 67.623385 30.483692 67.623384 68.135384v57.777231c47.261538 16.856615 89.718154 43.047385 127.094154 75.106462l80.029539-46.513231a67.347692 67.347692 0 0 1 92.396307 24.930461l67.623385 117.996308a68.371692 68.371692 0 0 1-24.733538 93.065846zM905.869391 121.69846199999995a34.304 34.304 0 0 0-46.355693-12.209231l-94.247384 53.444923a340.007385 340.007385 0 0 0-185.895385-105.550769v-73.255385a33.595077 33.595077 0 0 0-33.910154-33.319385h-67.859692a33.595077 33.595077 0 0 0-33.910154 33.28v73.255385a340.007385 340.007385 0 0 0-185.895384 105.590154l-94.247385-53.405539a34.304 34.304 0 0 0-46.355692 12.209231l-33.910154 57.659077a32.925538 32.925538 0 0 0 12.406154 45.449846l94.64123 53.641846a324.804923 324.804923 0 0 0-18.038153 105.117539c0 36.824615 6.734769 71.955692 18.038153 105.117538L95.688468 542.326154a32.964923 32.964923 0 0 0-12.406154 45.489231l33.870769 57.698461a34.343385 34.343385 0 0 0 46.395077 12.209231l94.247385-53.444923a340.046769 340.046769 0 0 0 185.895384 105.550769v73.255385c0 18.432 15.163077 33.319385 33.910154 33.319384h67.859692c18.707692 0 33.870769-14.887385 33.87077-33.28v-73.294769a340.046769 340.046769 0 0 0 185.895384-105.550769l94.286769 53.405538A34.304 34.304 0 0 0 905.869391 645.5138460000001l33.910154-57.659077a32.964923 32.964923 0 0 0-12.406154-45.489231l-94.641231-53.602461c11.303385-33.161846 18.038154-68.292923 18.038154-105.156923a324.923077 324.923077 0 0 0-18.038154-105.078154l94.641231-53.641846c16.226462-9.176615 21.779692-29.538462 12.406154-45.449846L905.869391 121.69846199999995zM511.511237 554.535385c-93.380923 0-169.078154-76.248615-169.078154-170.299077s75.697231-170.299077 169.078154-170.299077c93.420308 0 169.117538 76.248615 169.117538 170.299077s-75.736615 170.299077-169.117538 170.299077z m0-272.502154a101.809231 101.809231 0 0 0-101.454769 102.203077 101.848615 101.848615 0 0 0 101.454769 102.203077 101.848615 101.848615 0 0 0 101.454769-102.203077 101.809231 101.809231 0 0 0-101.454769-102.203077z"  horiz-adv-x="1024" />

    
    <glyph glyph-name="xinfeng" unicode="&#58899;" d="M276.79031074 754.78857422h760.50371157c51.6178989 0 92.9122183-41.2943194 92.9122176-92.91221831v-36.13252894L765.43975443 369.37492834c-103.2357978-67.10326885-192.70682294-25.80894945-228.8393526-6.88238633l-12.04417608 10.32358021L183.87809244 603.37607068V661.87635591C183.87809244 713.49425482 225.17241184 754.78857422 276.79031074 754.78857422z m375.09006568-500.69361976c61.94147911 3.44119316 84.30923468 18.92656313 129.04474726 51.61789889l349.28111623 244.32472184v-443.91393112c0-51.6178989-41.2943194-92.9122183-92.9122176-92.91221829H276.79031074c-51.6178989 0-92.9122183 41.2943194-92.9122183 92.91221829V527.66981891l311.4279907-211.63338605c55.05909207-39.57372283 86.02983125-61.94147911 156.57429328-61.9414784z"  horiz-adv-x="1306" />

    
    <glyph glyph-name="tree" unicode="&#58916;" d="M1013.703 202.65499999999997c6.865-6.865 10.297-14.874 10.297-24.027v-205.944c0-9.916-3.432-18.115-10.297-24.599-6.865-6.483-15.255-9.725-25.171-9.725H782.588c-9.153 0-17.162 3.242-24.027 9.725-6.865 6.483-10.297 14.683-10.297 24.599V178.62800000000004c0 6.102 1.526 11.823 4.577 17.162s7.246 9.534 12.586 12.586 11.06 4.577 17.162 4.577h77.801V349.10400000000004c0 4.577-1.144 8.772-3.432 12.586s-5.339 6.865-9.153 9.153-8.009 3.432-12.585 3.432H543.464v-161.323h77.801c9.153 0 17.162-3.432 24.027-10.297s10.297-14.874 10.297-24.027v-205.944c0-6.102-1.526-11.823-4.577-17.162s-7.246-9.534-12.585-12.585-11.06-4.577-17.162-4.577H415.321c-6.102 0-11.823 1.526-17.162 4.577s-9.725 7.246-13.158 12.585-5.149 11.06-5.149 17.162V178.62800000000004c0 9.153 3.432 17.162 10.297 24.027s15.255 10.297 25.171 10.297h76.657V374.275H188.782c-7.628 0-13.92-2.479-18.878-7.437s-7.437-10.869-7.437-17.734v-136.152h77.801c9.916 0 18.115-3.432 24.599-10.297s9.725-14.874 9.725-24.027v-205.944c0-9.916-3.242-18.115-9.725-24.599-6.483-6.483-14.683-9.725-24.599-9.725H34.324c-3.814 0-7.437 0.572-10.869 1.716-3.432 1.144-6.483 2.67-9.153 4.577-2.67 1.907-5.149 4.386-7.437 7.437-2.288 3.051-4.004 6.293-5.149 9.725C0.572-34.75300000000004 0-31.129999999999995 0-27.31600000000003V178.62800000000004c0 3.051 0.381 6.102 1.144 9.153s1.907 5.721 3.432 8.009 3.432 4.577 5.721 6.865 4.577 4.195 6.865 5.721 4.958 2.67 8.009 3.432 6.102 1.144 9.153 1.144h77.801V400.59c0 6.865 2.479 12.776 7.437 17.734s10.869 7.437 17.734 7.437h354.682V553.904h-76.657c-9.916 0-18.306 3.432-25.171 10.297s-10.297 14.874-10.297 24.027V794.172c0 9.916 3.432 18.306 10.297 25.171s15.255 10.297 25.171 10.297h205.944c6.102 0 11.823-1.716 17.162-5.149 5.339-3.432 9.534-7.818 12.585-13.158 3.051-5.339 4.577-11.06 4.577-17.162v-205.944c0-9.153-3.432-17.162-10.297-24.027s-14.874-10.297-24.027-10.297h-77.801V425.76H885.56c7.628 0 13.92-2.479 18.878-7.437s7.437-10.869 7.437-17.734v-187.638h76.657c9.916 0.001 18.306-3.431 25.171-10.296z"  horiz-adv-x="1024" />

    
    <glyph glyph-name="study" unicode="&#58908;" d="M1024 640a95.584 95.584 0 0 1-74.432 93.568L533.152 829.664a96.512 96.512 0 0 1-42.752-0.096l-415.968-96C30.592 723.456 0 684.992 0 640s30.624-83.456 74.4-93.568L160 526.688V256c0-84.928 97.216-160 352-160s352 75.072 352 160v270.688l85.568 19.744A95.584 95.584 0 0 1 1024 640z m-224-384c0-35.36-96-96-288-96s-288 60.64-288 96v255.904l266.816-61.568a96.8 96.8 0 0 1 42.752 0.096L800 511.904V256z m-280.8 256.8a34.464 34.464 0 0 0-14.4 0l-416 96a32 32 0 0 0 0 62.4l416 96a34.016 34.016 0 0 0 14.4 0l416-96a32.032 32.032 0 0 0 0-62.4l-416-96zM928 480v-288a32 32 0 1 1 64 0v288a32 32 0 1 1-64 0zM960 128c-35.36 0-64-92.672-64-128a64 64 0 0 1 128 0c0 35.328-28.672 128-64 128z"  horiz-adv-x="1024" />

    
    <glyph glyph-name="plus" unicode="&#58900;" d="M426.666667 469.333333V810.666667a85.333333 85.333333 0 1 0 170.666666 0v-341.333334h341.333334a85.333333 85.333333 0 0 0 0-170.666666H597.333333v-341.333334a85.333333 85.333333 0 0 0-170.666666 0V298.666667H85.333333a85.333333 85.333333 0 0 0 0 170.666666h341.333334z"  horiz-adv-x="1024" />

    
    <glyph glyph-name="play" unicode="&#59007;" d="M865.625 279.1875l-589.125-353.90625c-55.96875-33.65625-128.71875-15.5625-162.28125 40.5-11.0625 18.375-16.875 39.46875-16.875 60.9375v707.8125c0 65.34375 52.96875 118.3125 118.3125 118.3125 21.46875 0 42.5625-5.8125 60.9375-16.875l589.125-353.90625c55.96875-33.65625 74.15625-106.3125 40.5-162.28125-10.125-16.6875-24-30.5625-40.59375-40.59375z"  horiz-adv-x="1024" />

    
    <glyph glyph-name="jt-right-2" unicode="&#59258;" d="M476.416 674.8364799999999c-20.89984 20.89984-20.89984 54.80448 0 75.70432 20.89984 20.91008 54.79424 20.91008 75.70432 0l328.704-328.69376c10.4448-10.45504 15.6672-24.14592 15.6672-37.84704s-5.23264-27.40224-15.6672-37.84704l-328.704-328.69376c-20.91008-20.91008-54.80448-20.91008-75.70432 0-20.89984 20.89984-20.89984 54.79423999 0 75.70432L767.25248 384 476.416 674.8364799999999zM434.03264 384l-290.83648-290.83648c-20.89984-20.91008-20.89984-54.80448 0-75.70432 20.89984-20.91008 54.79424-20.91008 75.70432 0l328.704 328.69376c10.4448 10.45504 15.6672 24.14592 15.6672 37.84704s-5.23264 27.40224-15.6672 37.84704l-328.704 328.69376c-20.91008 20.91008-54.80448 20.91008-75.70432 0-20.89984-20.89984-20.89984-54.80448 0-75.70432L434.03264 384z"  horiz-adv-x="1024" />

    
    <glyph glyph-name="dot-circle-o" unicode="&#58880;" d="M515.2 844.8C256 844.8 44.8 632 44.8 372.79999999999995S256-97.60000000000002 515.2-97.60000000000002s470.4 211.2 470.4 470.4S774.4 844.8 515.2 844.8zM515.2-49.60000000000002c-233.6 0-422.4 190.4-422.4 422.4S281.6 796.8 515.2 796.8s422.4-190.4 422.4-422.4S748.8-49.60000000000002 515.2-49.60000000000002zM515.2 372.79999999999995m-374.4 0a23.4 23.4 0 1 1 748.8 0 23.4 23.4 0 1 1-748.8 0Z"  horiz-adv-x="1024" />

    
    <glyph glyph-name="tongji" unicode="&#58930;" d="M938.9056 11.980800000000045H139.6736a40.96 40.96 0 0 0-40.96 40.96V714.752a40.96 40.96 0 0 0 82.6368 0v-620.1344h757.76a40.96 40.96 0 1 0 0-82.6368m-96.6656 124.0064H759.808a40.96 40.96 0 0 0-40.96 40.96V466.6368a40.96 40.96 0 0 0 40.96 40.96h82.6368a40.96 40.96 0 0 0 40.96-40.96v-289.28a40.96 40.96 0 0 0-40.96-40.96m-234.2912 0h-82.6368a40.96 40.96 0 0 0-40.96 40.96v454.656a40.96 40.96 0 0 0 40.96 40.96h82.6368a40.96 40.96 0 0 0 40.96-40.96v-454.656a40.96 40.96 0 0 0-40.96-40.96m-234.2912 0h-82.6368a40.96 40.96 0 0 0-40.96 40.96v82.6368a40.96 40.96 0 0 0 40.96 40.96h82.6368a40.96 40.96 0 0 0 40.96-40.96v-82.6368a40.96 40.96 0 0 0-40.96-40.96"  horiz-adv-x="1024" />

    
    <glyph glyph-name="zujian" unicode="&#58931;" d="M839.68 756.0192H184.32a70.8608 70.8608 0 0 1-70.8608-70.8608v-602.3168A70.8608 70.8608 0 0 1 184.32 11.980800000000045h655.36a70.8608 70.8608 0 0 1 70.8608 70.8608V685.1584A70.8608 70.8608 0 0 1 839.68 756.0192z m-44.3392-88.576a26.624 26.624 0 1 0-26.624-26.624 26.624 26.624 0 0 0 26.624 26.624z m-106.2912 0a26.624 26.624 0 1 0-26.2144-26.624 26.624 26.624 0 0 0 26.2144 26.624z m-106.2912 0a26.624 26.624 0 1 0-26.624-26.624 26.624 26.624 0 0 0 26.624 26.624zM857.4976 117.75999999999999c0-39.1168-14.0288-53.1456-53.1456-53.1456h-584.704c-39.1168 0-53.1456 14.0288-53.1456 53.1456V561.152h690.9952V117.75999999999999zM266.752 352.66560000000004l100.0448-26.8288L272.4864 271.36a17.7152 17.7152 0 0 1-6.2464-24.2688l8.8064-15.36a17.7152 17.7152 0 0 1 24.1664-6.4512l140.5952 81.2032a17.7152 17.7152 0 0 1 20.48 12.8l4.608 17.1008a17.7152 17.7152 0 0 1-12.4928 21.7088l-10.24 2.6624a17.6128 17.6128 0 0 1-5.0176 1.3312L280.576 404.48a17.7152 17.7152 0 0 1-21.7088-12.4928l-4.608-17.1008a17.7152 17.7152 0 0 1 12.4928-21.7088z m307.2-181.248h177.152A17.7152 17.7152 0 0 1 768.9216 189.44000000000005v17.408a17.7152 17.7152 0 0 1-17.7152 17.7152h-177.152a17.7152 17.7152 0 0 1-17.7152-17.7152V189.44000000000005a17.7152 17.7152 0 0 1 17.7152-17.7152z m0 0"  horiz-adv-x="1024" />

    
    <glyph glyph-name="shezhi2" unicode="&#58932;" d="M429.4656 732.8768H164.9664v-264.4992a76.6976 76.6976 0 0 1 76.6976-76.6976h264.4992V656.2816a76.6976 76.6976 0 0 1-76.6976 76.6976z m15.36-279.8592H241.664a15.36 15.36 0 0 0-15.36 15.36V671.5391999999999h203.1616a15.36 15.36 0 0 0 15.36-15.36zM552.96 656.2816v-264.4992h264.4992a76.6976 76.6976 0 0 1 76.6976 76.6976V732.8768H629.5552A76.6976 76.6976 0 0 1 552.96 656.2816z m264.4992-203.1616H614.4V656.2816a15.36 15.36 0 0 0 15.36 15.36h202.9568v-203.264a15.36 15.36 0 0 0-15.36-15.36zM164.9664 270.6432V6.1440000000000055h264.4992a76.6976 76.6976 0 0 1 76.6976 76.6976V347.23839999999996H241.664a76.6976 76.6976 0 0 1-76.6976-76.6976z m264.4992-203.1616H226.304V270.6432a15.36 15.36 0 0 0 15.36 15.36h203.1616v-203.264a15.36 15.36 0 0 0-15.36-15.36z m387.9936 279.7568H552.96v-264.4992a76.6976 76.6976 0 0 1 76.6976-76.6976h264.3968V270.6432a76.6976 76.6976 0 0 1-76.6976 76.6976z m15.36-279.8592H629.5552a15.36 15.36 0 0 0-15.36 15.36V285.9008h203.264a15.36 15.36 0 0 0 15.36-15.36z m0 0"  horiz-adv-x="1024" />

    
    <glyph glyph-name="diannao" unicode="&#58933;" d="M655.872 341.9136A50.0736 50.0736 0 1 1 705.9456 291.84000000000003a50.0736 50.0736 0 0 1-50.0736 50.0736m0-148.48A98.5088 98.5088 0 1 0 754.3808 291.84000000000003a98.6112 98.6112 0 0 0-98.5088-98.5088m59.5968-68.096a3.1744 3.1744 0 0 1 1.536 0l47.616 26.3168a81.92 81.92 0 0 0-6.4512 29.184 75.8784 75.8784 0 0 0 71.68 75.776 228.6592 228.6592 0 0 1 3.6864 34.4064 229.0688 229.0688 0 0 1-3.6864 34.4064 75.8784 75.8784 0 0 0-71.68 75.6736 81.92 81.92 0 0 0 6.4512 29.184L717.9264 455.68a3.4816 3.4816 0 0 1-1.8432 0 131.1744 131.1744 0 0 0-17.3056-14.5408 72.2944 72.2944 0 0 0-40.96-15.36 72.192 72.192 0 0 0-40.96 15.5648 130.048 130.048 0 0 0-17.2032 14.336 3.7888 3.7888 0 0 1-1.8432 0l-48.5376-26.7264a81.92 81.92 0 0 0 6.3488-29.184 75.8784 75.8784 0 0 0-71.68-75.6736 230.0928 230.0928 0 0 1-3.6864-34.4064 227.7376 227.7376 0 0 1 3.6864-34.4064 75.8784 75.8784 0 0 0 71.68-75.6736 80.6912 80.6912 0 0 0-6.4512-29.184l45.9776-25.7024a3.3792 3.3792 0 0 1 1.536 0A133.9392 133.9392 0 0 0 614.4 141.312a71.68 71.68 0 0 0 40.96 16.2816 71.68 71.68 0 0 0 41.984-16.5888 135.7824 135.7824 0 0 0 17.7152-15.6672m15.1552-72.2944a32.5632 32.5632 0 0 0-23.8592 10.24c-7.8848 8.6016-32.6656 30.72-53.0432 30.72s-45.3632-22.528-52.6336-30.72a32.4608 32.4608 0 0 0-23.6544-10.24 29.7984 29.7984 0 0 0-11.6736 3.2768h-0.6144l-61.44 34.5088h-0.6144a29.5936 29.5936 0 0 0-10.24 35.84 74.24 74.24 0 0 1 5.7344 25.088 65.536 65.536 0 0 1-65.536 65.536H430.08c-10.24 0-18.7392 9.216-21.4016 23.4496a315.904 315.904 0 0 0-5.3248 49.3568 317.952 317.952 0 0 0 5.2224 49.3568C411.2384 354.50879999999995 419.84 363.52 430.08 363.52h2.1504a65.536 65.536 0 0 1 65.536 65.536 74.4448 74.4448 0 0 1-5.7344 25.088 29.5936 29.5936 0 0 0 10.24 35.7376h0.6144l65.2288 35.84h0.7168a30.0032 30.0032 0 0 0 11.8784 2.3552 33.0752 33.0752 0 0 0 23.7568-10.24c7.68-8.0896 32.1536-29.0816 51.8144-29.0816s43.8272 20.48 51.2 28.5696a33.0752 33.0752 0 0 0 23.552 9.5232 30.72 30.72 0 0 0 12.1856-2.4576h0.6144l62.976-35.0208h0.6144a29.5936 29.5936 0 0 0 10.24-35.84 74.24 74.24 0 0 1-5.7344-24.9856 65.536 65.536 0 0 1 65.536-65.536h2.1504c10.24 0 19.1488-9.0112 21.9136-23.4496a319.488 319.488 0 0 0 5.2224-49.3568 313.7536 313.7536 0 0 0-5.3248-49.3568c-2.6624-14.336-11.3664-23.6544-21.8112-23.3472h-2.1504a65.536 65.536 0 0 1-65.536-65.536 74.24 74.24 0 0 1 5.7344-25.088 29.5936 29.5936 0 0 0-10.24-35.84h-0.6144l-64.1024-35.4304h-0.6144a30.0032 30.0032 0 0 0-11.8784-2.3552zM878.592 523.1616a32.4608 32.4608 0 1 0-65.024 0V653.1072a16.2816 16.2816 0 0 1-16.1792 16.2816H212.2752a16.2816 16.2816 0 0 1-16.1792-16.2816v-389.8368a16.2816 16.2816 0 0 1 16.1792-16.2816H358.4a32.4608 32.4608 0 1 0 0-65.024H163.84a32.4608 32.4608 0 0 0-32.5632 32.4608V701.44A32.5632 32.5632 0 0 0 163.84 734.4128000000001h682.1888A32.4608 32.4608 0 0 0 878.592 701.44zM277.4016 84.48000000000002a32.5632 32.5632 0 0 0 32.6656 32.4608h129.6384a32.4608 32.4608 0 1 0 0-65.024H310.0672a32.4608 32.4608 0 0 0-32.6656 32.4608z m0 0"  horiz-adv-x="1024" />

    
    <glyph glyph-name="jt-up" unicode="&#59259;" d="M112.00043 224.03182401000004c0 12.287381 4.67206 24.576482 14.047144 33.95156599L478.015751 609.951566c18.719204 18.751888 49.12028 18.751888 67.872168 0L897.888778 257.983389c18.751888-18.751888 18.751888-49.12028 0-67.872168-18.719204-18.751888-49.12028-18.751888-67.872168 0l-318.047574 318.01661101L193.95242599 190.111222c-18.751888-18.751888-49.12028-18.751888-67.87216799 0C116.67249 199.45534200999998 112.00043 211.74444300000005 112.00043 224.03182401000004z"  horiz-adv-x="1024" />

    
    <glyph glyph-name="jt-down" unicode="&#59260;" d="M911.99957 543.96817599c0-12.287381-4.67206-24.576482-14.047144-33.95156599L545.984249 158.04843400000004c-18.719204-18.751888-49.12028-18.751888-67.872168 0L126.111222 510.016611c-18.751888 18.751888-18.751888 49.12028 0 67.872168 18.719204 18.751888 49.12028 18.751888 67.872168 0l318.047574-318.01661101L830.04757401 577.888778c18.751888 18.751888 49.12028 18.751888 67.87216799 0C907.32751 568.54465799 911.99957 556.255557 911.99957 543.96817599z"  horiz-adv-x="1024" />

    
    <glyph glyph-name="warning" unicode="&#58934;" d="M949.3504 49.25440000000003A79.0528 79.0528 0 0 0 880.64 9.11360000000002H159.8464A78.9504 78.9504 0 0 0 92.16 128.9216l360.448 597.8112a78.9504 78.9504 0 0 0 135.168 0l360.448-597.8112a79.0528 79.0528 0 0 0 1.1264-79.5648z m-50.176 50.0736L538.8288 697.2416000000001a21.7088 21.7088 0 0 1-37.1712 0L141.2096 99.32799999999997a21.7088 21.7088 0 0 1 18.6368-32.768H880.64a21.7088 21.7088 0 0 1 18.6368 32.9728zM521.0112 138.24a40.96 40.96 0 1 0 40.3456 40.96 41.472 41.472 0 0 0-40.3456-40.96z m-0.512 118.3744c-16.9984 0-31.3344 6.8608-31.3344 23.3472 0 63.1808-7.4752 153.6-7.4752 217.088 0 20.48 16.9984 32.3584 38.7072 32.3584s38.1952-11.6736 38.1952-32.3584c0-63.1808-7.4752-153.6-7.4752-217.088 0-16.4864-18.0224-23.3472-30.72-23.3472z m0 0"  horiz-adv-x="1024" />

    
    <glyph glyph-name="edit" unicode="&#58995;" d="M910.222222 793.144889C910.222222 849.749333 868.522667 896 817.095111 896H93.127111C41.756444 896 0 849.976889 0 793.2586670000001v-818.517334C0-82.14755600000001 41.699556-128 93.127111-128h723.968c51.370667 0 93.127111 46.08 93.127111 102.855111v135.054222a70.144 70.144 0 0 1-69.973333-69.859555v-65.194667c0-19.683556-12.117333-32.995556-23.153778-32.995555H93.127111c-11.150222 0-23.096889 13.084444-23.096889 32.881777V793.2586670000001c0 19.626667 12.060444 32.938667 23.096889 32.938666h723.968c10.979556 0 23.096889-13.425778 23.096889-33.052444V626.9155559999999c0-38.570667 31.345778-69.802667 70.030222-69.802667V793.144889zM170.666667 668.444444h524.344889v-71.623111H170.666667V668.444444z m0-214.812444h333.653333v-71.566222H170.666667V453.632z m0-214.755556h333.653333v-71.623111H170.666667v71.623111zM1108.536889 527.36l-345.429333-290.247111-65.365334-8.021333 19.342222 62.862222 345.486223 290.247111 45.966222-54.840889z m-14.165333 128.284444a35.726222 35.726222 0 0 1-50.346667 4.437334l-380.928-320.056889a35.84 35.84 0 0 1-11.150222-16.896l-24.803556-80.327111c-15.416889-50.062222 19.911111-92.103111 71.68-85.731556l83.512889 10.24a35.726222 35.726222 0 0 1 18.659556 8.135111l380.871111 320.056889a35.84 35.84 0 0 1 4.437333 50.460445l-91.932444 109.681777z"  horiz-adv-x="1194" />

    
    <glyph glyph-name="anli" unicode="&#58936;" d="M981.674667 193.45066699999995a38.4 38.4 0 0 1-30.592 26.965333l-131.797334 20.053333-58.88 124.586667a37.546667 37.546667 0 0 1-34.005333 22.101333 37.845333 37.845333 0 0 1-34.048-22.016l-58.88-124.586666-131.797333-19.882667a38.4 38.4 0 0 1-30.592-27.008 40.789333 40.789333 0 0 1 9.514666-40.490667l95.274667-96.896-22.485333-136.96a40.661333 40.661333 0 0 1 15.061333-38.741333 36.522667 36.522667 0 0 1 39.936-2.986667l117.76 64.554667 117.888-64.64a36.650667 36.650667 0 0 1 39.936 2.944 40.405333 40.405333 0 0 1 15.061333 38.741333l-22.485333 136.96 95.232 96.896a39.893333 39.893333 0 0 1 9.898667 40.405334z m-62.165334-28.288l-82.858666-84.266667-9.984-10.112 2.261333-14.08 19.541333-118.997333a7.552 7.552 0 0 0-2.389333-6.869334 3.797333 3.797333 0 0 0-4.352-0.298666l-102.4 56.149333-13.482667 7.296-13.525333-7.296-102.4-55.978667a4.010667 4.010667 0 0 0-4.224 0.426667c-1.834667 1.365333-2.816 4.181333-2.389333 6.869333l19.541333 118.997334 2.261333 14.08-9.984 10.112-82.816 84.224a7.594667 7.594667 0 0 0-1.578666 7.338666c0.725333 2.261333 2.389333 3.797333 4.096 4.053334l114.602666 17.493333 14.805334 2.218667 6.314666 13.482666 51.2 108.330667c0.853333 1.962667 2.56 3.2 4.224 3.2 1.706667 0 3.370667-1.109333 4.224-3.2l51.2-108.330667 6.314667-13.482666 14.762667-2.261334 114.645333-17.450666c1.834667-0.256 3.498667-1.792 4.053333-4.053334a8.362667 8.362667 0 0 0-1.706666-7.594666zM77.568-82.55999999999995c-6.997333 0-12.373333 4.650667-12.373333 8.832V843.946667c0 4.181333 5.248 8.832 12.373333 8.832h502.485333v-219.605334c0-34.133333 27.733333-56.277333 61.738667-56.277333h198.4v-138.410667c0-21.76 6.613333-37.930667 28.373333-37.930666 21.717333 0 21.504 16.213333 21.504 37.930666V617.8133330000001L643.242667 895.146667H97.322667C55.68 895.146667 21.930667 862.890667 21.930667 823.253333v-878.677333c0-39.552 33.749333-71.850667 75.392-71.850667h331.946666c21.76 0 39.296-0.213333 39.296 21.504 0 21.76-17.664 22.869333-39.253333 22.869334l-351.744 0.298666zM622.336 852.778667l210.432-233.6h-210.432V852.778667z"  horiz-adv-x="1024" />

    
    <glyph glyph-name="talk" unicode="&#58937;" d="M194.389333 106.66666699999996l-2.133333 1.493333c-59.989333 42.325333-107.008 92.288-139.605333 148.394667a377.429333 377.429333 0 0 0-52.010667 192.256C0.64 695.296 230.186667 895.829333 512.256 895.829333c282.154667 0 511.658667-200.533333 511.658667-447.018666 0-246.570667-229.546667-447.061333-511.658667-447.061334H424.576l-230.186667-125.738666V106.66666699999996z m54.485334-132.437334l178.133333 81.92h85.248c121.898667 0 236.544 40.789333 322.944 114.773334a393.984 393.984 0 0 1 98.133333 124.8 343.082667 343.082667 0 0 1 36.096 153.002666c0 53.077333-12.16 104.533333-36.096 153.045334a394.88 394.88 0 0 1-98.133333 124.757333c-86.314667 73.984-201.045333 114.773333-322.944 114.773333-121.856 0-236.501333-40.789333-322.901333-114.773333a392.362667 392.362667 0 0 1-98.133334-124.714667 343.082667 343.082667 0 0 1-36.096-153.002666c0-64.597333 18.688-129.28 54.016-187.136a422.656 422.656 0 0 1 139.733334-138.666667v-148.778667zM697.514667 533.76c-49.749333 164.650667-208.896 156.245333-208.896 156.245333 223.232-108.416 123.008-262.058667 123.008-262.058666L482.090667 558.933333l49.493333 53.632-33.834667 30.976-26.752-23.850666-50.090666 0.64L318.72 517.674667l61.866667-55.466667 38.357333 36.778667 132.096-127.146667c-112-72.96-214.101333 47.061333-214.101333 47.061333l-40.277334-34.816 30.592-35.498666-5.290666-7.082667c-14.250667 1.28-20.138667-5.12-20.138667-5.12-35.157333-33.621333 7.125333-52.352 7.125333-52.352 41.088-8.96 39.082667 32.981333 39.082667 32.981333l7.850667 9.642667c154.282667-82.56 245.333333-8.405333 245.333333-8.405333l44.245333-41.344 60.501334 60.074666-39.68 42.581334s54.016 78.634667 31.232 154.24z"  horiz-adv-x="1024" />

    
    <glyph glyph-name="zhidu" unicode="&#58938;" d="M962.474667 895.274667H60.074667A60.16 60.16 0 0 1 0.213333 834.986667v-902.101334c0-33.237333 26.88-60.245333 59.946667-60.245333h619.264l343.04 354.986667V834.986667A60.16 60.16 0 0 1 962.517333 895.274667z m-263.722667-914.56V203.51999999999998h214.485333l-214.485333-222.848z m-30.72 284.330666a30.72 30.72 0 0 1-30.72-30.72v-300.16H61.568V833.792h899.370667v-568.746667h-292.992zM409.6 257.36533299999996l60.416 46.933334h-75.52l-20.522667 63.701333-22.144-63.701333h-75.946666l59.648-46.933334-27.306667-78.634666 64.128 49.749333 62.293333-48.938667zM372.906667 71.55200000000002a202.026667 202.026667 0 0 0-201.813334 201.813333 202.026667 202.026667 0 0 0 201.813334 201.813334 202.026667 202.026667 0 0 0 201.813333-201.813334 202.026667 202.026667 0 0 0-201.813333-201.813333z m0 342.144a140.501333 140.501333 0 0 1-140.288-140.373333 140.501333 140.501333 0 0 1 140.330666-140.288 140.501333 140.501333 0 0 1 140.373334 140.330666 140.501333 140.501333 0 0 1-140.373334 140.330667zM830.976 587.8613330000001H210.048a30.72 30.72 0 0 0 0 61.482667h620.928a30.72 30.72 0 1 0 0-61.44z m0-164.906666h-198.784a30.72 30.72 0 0 0 0 61.482666h198.826667a30.72 30.72 0 1 0 0-61.44z"  horiz-adv-x="1024" />

    
    <glyph glyph-name="order" unicode="&#58939;" d="M495.36 475.434667c116.992 0 208.426667 95.061333 208.426667 208.469333C707.456 800.853333 612.352 896 495.36 896 381.952 896 286.890667 800.896 286.890667 687.530667c0-117.034667 95.061333-212.096 208.426666-212.096z m0 373.034666c87.765333 0 160.853333-73.173333 160.853333-160.938666 0-87.765333-73.088-160.896-160.853333-160.896-87.808 0-160.938667 73.130667-160.938667 160.896s73.130667 160.938667 160.896 160.938666z m18.261333-610.773333s0 3.669333 0 0l54.869334 58.538667c3.626667 3.669333 7.296 7.296 7.296 14.634666 0 3.626667-3.669333 10.965333-7.296 14.634667L509.952 384c-7.296 7.296-21.930667 7.296-29.226667 0l-58.538666-58.496c-7.296-7.338667-7.296-21.973333 0-29.269333l54.869333-54.869334v-3.669333l-62.165333-190.165333c-3.669333-7.296 0-10.965333 3.626666-18.261334l62.208-87.765333c3.626667-3.669333 10.965333-7.338667 14.592-7.338667 7.338667 0 11.008 3.669333 14.634667 7.338667l62.165333 87.765333c3.669333 3.626667 3.669333 10.965333 3.669334 18.261334l-62.165334 190.165333z m-153.6-318.165333H250.325333c-36.608 0-117.034667 7.338667-117.034666 87.765333v153.6c0 102.4 7.296 193.834667 120.661333 223.104 14.634667 3.669333 21.973333 14.634667 18.304 29.269333-3.669333 14.634667-14.634667 21.930667-29.269333 18.261334C82.090667 394.965333 85.76 245.034667 85.76 164.565333v-153.6C85.76-73.13066700000002 151.552-128 250.325333-128h109.653334c14.677333 0 25.6 10.965333 25.6 25.6 0 10.965333-10.922667 21.930667-25.6 21.930667z m387.669334 519.338666c-14.634667 3.626667-25.6-3.669333-29.269334-18.304-3.669333-14.634667 3.669333-25.6 18.304-29.269333 113.365333-25.6 124.330667-120.661333 120.661334-223.061333v-153.6c0-80.469333-80.469333-87.765333-117.034667-87.765334h-109.696c-14.634667 0-25.6-10.965333-25.6-25.6 0-14.634667 10.965333-25.6 25.6-25.6h109.696c98.773333 0 164.565333 54.826667 164.565333 138.965334v153.6c0 80.469333 3.669333 230.4-157.226666 270.634666z"  horiz-adv-x="1024" />

    
    <glyph glyph-name="video" unicode="&#58940;" d="M512.19584 895.744a426.24 426.24 0 0 1-303.317333-125.824 429.482667 429.482667 0 0 1-108.885334-183.466667 38.314667 38.314667 0 0 1 50.645334-12.672c4.821333 16.213333 10.666667 31.914667 17.493333 47.104 59.093333 131.2 191.104 222.805333 344.064 222.805334 207.957333 0 377.130667-169.173333 377.130667-377.088a376.192 376.192 0 0 0-43.264-175.274667 50.133333 50.133333 0 0 1 46.762666-22.784 425.386667 425.386667 0 0 1 48.554667 198.101333c0 236.586667-192.554667 429.098667-429.226667 429.098667z m265.429333-698.069333l-1.365333-0.042667a375.168 375.168 0 0 0-264.106667-108.16c-187.221333 0-343.04 137.216-372.138666 316.373333a377.088 377.088 0 0 0-3.882667 88.106667 48.298667 48.298667 0 0 1-21.930667 5.077333 49.92 49.92 0 0 1-30.549333-10.410666 433.706667 433.706667 0 0 1 3.584-82.048c23.808-168.96 146.218667-306.602667 306.986667-352.64 37.504-10.752 77.056-16.469333 117.973333-16.469334a427.648 427.648 0 0 1 255.616 84.650667c16.981333 12.629333 33.024 26.453333 48 41.472a38.4 38.4 0 0 1-38.186667 34.090667zM92.953173-127.31733299999996a26.069333 26.069333 0 0 0-15.488 46.933333c127.36 94.122667 277.717333 143.829333 434.730667 143.829333 157.098667 0 307.456-49.706667 434.773333-143.786666 5.546667-4.096 9.258667-10.24 10.24-17.066667a26.154667 26.154667 0 0 0-41.216-24.746667 675.242667 675.242667 0 0 1-403.797333 133.546667c-145.834667 0-285.44-46.165333-403.797333-133.589333a25.898667 25.898667 0 0 0-15.445334-5.12z m419.242667 442.154666a151.893333 151.893333 0 0 0-151.68 151.765334 151.893333 151.893333 0 0 0 151.68 151.722666 151.936 151.936 0 0 0 151.808-151.722666 151.978667 151.978667 0 0 0-151.808-151.765334z m0 251.477334a99.754667 99.754667 0 0 1-99.626667-99.669334 99.797333 99.797333 0 0 1 99.626667-99.754666 99.84 99.84 0 0 1 99.712 99.754666 99.84 99.84 0 0 1-99.712 99.669334zM170.56384 607.488a38.4 38.4 0 1 0-76.8-0.042667 38.4 38.4 0 0 0 76.8 0z m645.461333-448.256a38.4 38.4 0 1 0-76.16 6.912 38.4 38.4 0 0 0 76.16-6.912zM164.377173 448.853333c0-18.090667-9.6-34.005333-24.021333-42.794666l-0.341333-0.213334a49.792 49.792 0 0 0-43.562667-3.882666 50.133333 50.133333 0 1 0 67.925333 46.933333z m773.973334-130.389333a50.133333 50.133333 0 1 0-100.266667 0 50.133333 50.133333 0 0 0 100.266667 0z"  horiz-adv-x="1024" />

    
    <glyph glyph-name="jtai" unicode="&#58943;" d="M511.701392-127.14683600000001H188.48003c-3.83924 0-7.635822 0-11.432404 0.98114a35.832908 35.832908 0 0 0-26.533415 34.083921c0.085316 23.163416 0 46.326831 0 69.40493a34.553161 34.553161 0 0 0 11.176454 25.594934l64.62721 61.555817 13.266707 12.49886c1.535696 1.407721 2.303544 2.943417 2.090253 4.991012-0.127975 0.981139 0 2.090253 0 3.156709v302.873389c0 0.597215-0.127975 1.109114 0 1.578354 0.426582 3.37-0.853164 5.844177-3.071392 8.488987L190.101043 456.801591a38.605693 38.605693 0 0 0-9.38481 25.338985c0.127975 23.845947 0.127975 47.649236 0 71.5805 0 8.062404 1.962278 15.570252 6.782658 22.09696a34.809111 34.809111 0 0 0 27.514554 14.802404c2.047595 0.085316 4.137848 0.085316 6.313417 0.085316h183.302388c7.507847 0 6.995949-0.72519 6.995949 7.081265V672.99347c0 6.612025 0 6.612025-5.545569 3.455316-21.115821-12.157594-42.231642-24.272529-63.347462-36.558098a52.043033 52.043033 0 0 0-78.107208 33.955947 52.298982 52.298982 0 0 0 25.253668 56.052906c31.737719 18.25772 63.64607 36.643414 95.383789 55.029109 2.090253 1.19443 4.607088 2.175569 6.100126 4.009873 1.663671 1.876962 0.682532 4.692405 0.767848 7.081265 1.19443 21.670378 8.147721 41.250503 21.329112 58.441766 15.442277 20.049365 35.576959 33.188098 60.404045 38.520377 33.14544 7.038607 63.17683-0.213291 89.539612-21.755695 18.25772-14.930378 29.77544-34.297212 34.979743-57.247336a104.128725 104.128725 0 0 0-35.5343-103.574168 101.526573 101.526573 0 0 0-48.331768-22.182276c-20.006707-3.497974-39.458857-1.279747-58.313792 6.398734-1.066456 0.426582-2.132911 0.981139-3.37 1.407721-1.19443 0.426582-2.047595 0-2.047594-1.407721-0.127975-1.066456-0.127975-2.047595-0.127975-3.156709v-95.085181c0-1.19443 0-2.388861 0.127975-3.711266 0.085316-1.19443 0.853164-1.834304 2.047594-1.962278 1.962278-0.085316 3.83924-0.085316 5.758861-0.085316h344.16655c4.009873 0 7.93443 0 11.944303-0.853165a35.832908 35.832908 0 0 0 27.727845-34.723794c-0.213291-19.366834 0-38.648351 0-58.015185v-16.210125a33.61468 33.61468 0 0 0-7.593164-21.755694c-7.507847-9.342151-15.228986-18.598986-22.864808-27.85582-9.342151-11.389746-18.684302-22.82215-28.154427-34.254554-1.535696-1.834304-2.516835-3.711265-2.17557-6.100126 0.085316-1.066456 0-2.047595 0-3.156708v-302.361491c0-7.593164-0.981139-5.417594 4.56443-10.749873 24.485821-23.462023 49.056957-46.924046 73.670753-70.300753 3.242025-3.156709 6.398734-6.313417 8.574303-10.408606 2.730126-5.118987 4.351139-10.57924 4.351139-16.466075 0-23.248732-0.085316-46.668097 0-69.959487a35.448984 35.448984 0 0 0-34.553162-34.809111h-5.801518c-106.944167 0.213291-213.803018 0.213291-320.747186 0.213291z m-0.554556 202.626564h224.040991c7.67848 0 7.081265-0.767848 7.081266 6.95329V389.870838c0 5.118987 0 5.118987-5.246962 5.246962H287.361793c-1.407721 0-2.815443 0-4.137848-0.127975-1.19443 0-1.962278-0.767848-2.047594-1.962278-0.127975-1.706329-0.127975-3.455316-0.127975-5.204304v-305.006301c0-8.446328-0.853164-7.465189 7.507847-7.465189 74.310626 0.085316 148.407961 0.085316 222.590613 0.085317z m0.213291-163.679605h315.329591c1.706329 0 3.455316 0 5.204303 0.127975 1.279747 0 1.876962 0.853164 1.876962 2.047594V-47.37595699999997c0 1.066456 0 2.047595-0.127975 3.156709-0.127975 1.279747-0.767848 1.834304-2.090253 1.962278H193.129776c-0.639873 0-1.407721 0-2.047594-0.127975-0.981139-0.085316-1.535696-0.767848-1.621013-1.706329-0.127975-1.45038-0.127975-2.858101-0.127975-4.137847v-32.846833c0-7.763797-0.767848-6.867974 7.081266-6.995948 105.109864-0.127975 209.963778-0.127975 314.945667-0.127975zM511.061519 506.07184h289.308075c0.511899 0 1.066456 0 1.493037 0.127975 0.767848 0.085316 1.19443 0.639873 1.279747 1.407721 0.127975 1.066456 0.127975 2.047595 0.127975 3.156709v37.112654c-0.085316 3.583291-0.426582 3.881898-3.796582 4.009873H224.056989c-4.009873-0.127975-4.223164-0.341266-4.308481-4.009873v-39.714806c0-1.19443 0.639873-1.962278 1.962278-1.962278 1.706329-0.127975 3.455316-0.127975 5.204304-0.127975h284.189087z m0.639873-509.083244h295.493517c0.554557 0 1.109114 0 1.535696 0.255949 0.554557 0.213291 0.767848 0.72519 0.426583 1.194431a31.69506 31.69506 0 0 1-3.242025 3.369999c-10.57924 10.109999-21.243795 20.134682-31.780377 30.116706-5.118987 4.905696-3.284683 3.83924-10.024683 4.052532H260.145846c-1.066456 0-2.047595-0.127975-3.156708 0-2.559493 0.298608-4.56443-0.767848-6.398734-2.64481-10.792531-10.408607-21.670378-20.64658-32.548225-31.012529-1.493038-1.407721-3.37-2.474177-4.137848-4.56443 1.962278-1.706329 4.265822-0.853164 6.313418-0.853164 97.175434 0.085316 194.350868 0.085316 291.483643 0.085316z m-0.085316 469.581729H240.693696l-5.246961-0.085317c-0.639873 0-1.066456-0.981139-0.639874-1.535696l1.19443-1.621012c6.526708-7.93443 13.053417-15.911518 19.622783-23.717973 1.365063-1.748987 2.687468-4.052531 4.521772-4.905696 1.876962-0.853164 4.479114-0.426582 6.654683-0.426582h489.71641c0.853164 0 1.706329 0.085316 2.559494 0 2.858101-0.341266 4.820379 0.639873 6.654683 3.028734 6.995949 8.702278 14.16253 17.191264 21.243795 25.808225a25.083036 25.083036 0 0 1 1.535696 2.047595c0.426582 0.682532 0 1.407721-0.767848 1.407722-1.962278 0.127975-3.83924 0.127975-5.801518 0.127974-90.051511-0.127975-180.273654-0.127975-270.325165-0.127974zM496.813672 856.210542a64.541893 64.541893 0 0 1-65.608348-65.09645 64.541893 64.541893 0 0 1 65.395057-65.352399c39.800123 0.085316 65.053791 32.932149 65.139108 65.053791-0.085316 35.79025-29.562149 65.693665-64.925817 65.395058zM315.77217 671.927014a11.858986 11.858986 0 0 1 6.100126 1.365064c1.834304 0.981139 3.668607 1.962278 5.417595 3.071392l81.263916 46.966704c1.279747 0.767848 2.602152 1.663671 3.924557 2.559494 0.639873 0.426582 0.853164 1.151772 0.426582 1.834303a18.129745 18.129745 0 0 1-1.962278 2.986076 98.71113 98.71113 0 0 0-8.233038 13.863923c-2.175569 4.56443-2.090253 3.924557-5.972151 1.834303a16.380758 16.380758 0 0 1-1.876962-1.066455l-38.818984-22.438226c-15.356961-8.915569-30.713921-17.703163-46.070881-26.66139a12.9681 12.9681 0 0 1-4.009873-3.242025 12.370885 12.370885 0 0 1-2.132912-13.607973c2.132911-4.692405 5.972151-7.507847 11.944303-7.507848z"  horiz-adv-x="1024" />

    
    <glyph glyph-name="qiye" unicode="&#58944;" d="M313.173333-5.6746669999999995c-66.901333 47.189333-119.552 89.472-159.061333 142.122667C108.586667 197.16266700000006 86.442667 266.06933300000003 86.442667 347.13599999999997V746.154667h19.285333C111.018667 746.325333 238.506667 752 498.346667 890.581333l9.002666 4.906667 9.045334-4.906667c259.882667-138.624 387.925333-144.256 393.258666-144.426666h18.645334v-399.018667c0-81.066667-22.144-149.973333-67.669334-210.688-39.552-52.608-92.202667-94.890667-159.104-142.122667l-194.133333-121.984-194.176 121.984zM500.778667 850.474667c-189.610667-99.413333-310.058667-128.853333-364.970667-137.557334l-11.648-1.834666v-366.165334c0-146.773333 78.250667-229.290667 213.461333-322.218666l0.170667-0.128 171.562667-109.397334 171.648 109.44 0.256 0.170667c136.234667 96.298667 210.005333 176.213333 210.005333 322.474667l-0.64 365.824-11.648 1.877333c-54.912 8.704-175.36 38.144-364.970667 137.514667L507.306667 853.973333l-6.613334-3.498666zM527.872 665.685333c37.333333-48.810667 68.181333-79.829333 116.181333-114.901333 48.042667-35.584 88.917333-58.026667 146.432-80.426667-12.458667-12.629333-17.792-20.650667-23.722666-37.333333-59.306667 28.714667-99.584 52.864-144.042667 85.589333-47.445333 36.181333-77.056 64.938667-115.029333 114.346667-43.264-56.32-66.986667-80.426667-117.333334-118.912-43.306667-33.322667-67.626667-48.256-131.626666-81.024-7.68 16.085333-14.250667 25.856-24.917334 34.474667 72.96 32.725333 126.293333 67.2 176.64 114.346666 41.514667 37.888 66.986667 71.765333 87.765334 113.706667l38.528-17.792-8.874667-12.074667zM708.693333 215.89333299999998c30.805333 0 48.597333 1.152 67.584 4.010667v-43.093333c-17.792 2.901333-38.528 4.053333-67.584 4.053333H317.44c-30.293333 0-50.432-1.152-68.224-4.053333v43.093333c17.194667-2.858667 35.584-4.010667 66.432-4.010667h42.069333v146.474667c0 26.453333-1.194667 45.397333-4.138666 63.786667h46.848c-2.986667-17.834667-4.181333-35.626667-4.181334-63.786667v-146.474667h110.293334v247.594667c0 27.562667-1.194667 44.202667-4.181334 62.592h47.445334c-2.986667-17.792-4.138667-33.877333-4.138667-62.037333v-66.048h104.32c29.056 0 46.250667 1.152 60.458667 3.413333v-41.898667c-16 2.304-32.597333 3.413333-60.458667 3.413334H545.706667v-147.029334h162.986666z"  horiz-adv-x="1024" />

    
    <glyph glyph-name="xingzhuang" unicode="&#58945;" d="M891.725902 563.251128h118.896787a16.952748 16.952748 0 0 1 11.775902 4.66485 15.587426 15.587426 0 0 1 4.892404 11.263907V693.241156c0 8.760816-7.395494 15.928756-16.668306 15.928756h-118.896787a16.270087 16.270087 0 0 1-16.554528-15.928756v-114.061271c0-8.760816 7.395494-15.928756 16.554528-15.928757z m16.611417 114.061272h85.730842v-82.203759h-85.730842V677.3124z m-790.123193-426.663111C52.906226 250.649289 0 199.847935 0 137.21379c0-56.319531 42.780088-102.968031 98.928953-111.842624v-100.009833h38.627234v100.009833c56.091977 8.874593 98.928953 55.579981 98.928953 111.842624 0 62.634145-52.906226 113.435499-118.271014 113.435499z m0-185.91134c-41.756096 0-75.661592 32.426396-75.661592 72.475841 0 40.106332 33.905495 72.532729 75.661592 72.532729 41.756096 0 75.661592-32.426396 75.661592-72.532729 0-40.049444-33.905495-72.47584-75.661592-72.475841zM456.586417 563.19424h118.896787c4.380408 0 8.590151 1.706652 11.719014 4.66485a15.587426 15.587426 0 0 1 4.892403 11.263906V693.241156c0 8.760816-7.395494 15.928756-16.611417 15.928756h-118.896787a16.270087 16.270087 0 0 1-16.611417-15.928756v-114.061271c0-8.760816 7.452382-15.928756 16.611417-15.928757z m16.611417 114.061272h85.673953v-82.20376H473.197834V677.3124z m418.528068-335.755425h118.896787a16.952748 16.952748 0 0 1 11.775902 4.607962 15.587426 15.587426 0 0 1 4.892404 11.263906V471.490115a15.530537 15.530537 0 0 1-4.892404 11.263906 16.895859 16.895859 0 0 1-11.775902 4.607962h-118.896787a16.213198 16.213198 0 0 1-16.554528-15.928756v-114.004383c0-8.760816 7.395494-15.871868 16.554528-15.871868z m16.611417 114.004384h85.730842v-82.260648h-85.730842V455.561359z m566.32417-204.91207c-65.3079 0-118.271014-50.801354-118.271014-113.4355 0-56.319531 42.836976-102.968031 98.985841-111.842623v-100.009833h38.570346v100.009833c56.091977 8.874593 98.928953 55.579981 98.928953 111.842623 0 62.634145-52.906226 113.435499-118.214126 113.4355z m0-185.91134c-41.812985 0-75.661592 32.426396-75.661592 72.47584 0 40.106332 33.848607 72.532729 75.661592 72.532729 41.756096 0 75.604703-32.426396 75.604703-72.532729 0-40.049444-33.848607-72.47584-75.661591-72.47584z m-256.566751-86.470391h-50.403135V869.538354A27.135774 27.135774 0 0 1 1140.043833 895.991467H334.446991a27.078885 27.078885 0 0 1-27.704658-26.510002v-891.157018h-50.403136a27.021997 27.021997 0 0 1-27.647769-26.396224c0-14.620323 12.401674-26.56689 27.647769-26.56689h961.81243a27.135774 27.135774 0 0 1 27.647769 26.56689 27.021997 27.021997 0 0 1-27.704658 26.396224z m-644.318186 0H362.09476v25.429122h211.681792v-25.372233z m293.828662 0h-113.776829v110.363525a16.15631 16.15631 0 0 1-16.611417 15.81498 16.213198 16.213198 0 0 1-16.611417-15.871868v-110.249748H606.999386V176.921903h113.663053v-30.150859c0-8.817704 7.452382-15.928756 16.611417-15.928757 9.159035 0 16.611417 7.111052 16.611417 15.928757v30.150859h113.77683v-198.597456z m244.790849 0h-211.681791v25.429122h211.624903v-25.372233z m0 57.229746h-211.681791V192.85066a15.587426 15.587426 0 0 1-4.835515 11.320794 16.952748 16.952748 0 0 1-11.832791 4.607962h-293.714885a16.952748 16.952748 0 0 1-11.775902-4.66485 15.587426 15.587426 0 0 1-4.835516-11.263906v-157.410244h-211.624903V854.462924h750.358192v-819.022508z m311.464071 326.084394c0 62.577256-52.906226 113.378611-118.271014 113.37861-65.251012 0-118.214126-50.744466-118.214126-113.37861 0-56.319531 42.836976-102.968031 98.928953-111.842624v-324.43463h38.627234V249.739074c56.091977 8.817704 98.928953 55.523093 98.928953 111.842624zM1305.58912 288.992081c-41.756096 0-75.604703 32.426396-75.604703 72.532729 0 40.049444 33.848607 72.532729 75.661592 72.532728 41.756096 0 75.604703-32.483285 75.604703-72.532728s-33.848607-72.532729-75.661592-72.532729z m-626.569001 274.202159h118.896787c4.380408 0 8.590151 1.706652 11.719014 4.66485a15.587426 15.587426 0 0 1 4.892403 11.263906V693.241156c0 8.760816-7.452382 15.928756-16.668305 15.928756h-118.896787a16.270087 16.270087 0 0 1-16.554529-15.928756v-114.061271c0-8.760816 7.395494-15.928756 16.611417-15.928757z m16.554529 114.061272h85.673953v-82.20376h-85.673953V677.3124z m-238.931342-335.755425h118.839898a16.270087 16.270087 0 0 1 16.611417 15.871868V471.490115a15.587426 15.587426 0 0 1-4.835515 11.263906 16.952748 16.952748 0 0 1-11.775902 4.607962h-118.896787a16.213198 16.213198 0 0 1-16.611417-15.928756v-114.004383c0.056888-8.760816 7.452382-15.871868 16.611417-15.871868z m16.49764 114.004384h85.730841v-82.260648H473.197834V455.561359z m205.879173-114.004384h118.896787a16.270087 16.270087 0 0 1 16.611417 15.871868V471.490115a15.587426 15.587426 0 0 1-4.892403 11.263906 16.952748 16.952748 0 0 1-11.775902 4.607962h-118.896787a16.213198 16.213198 0 0 1-16.554529-15.928756v-114.004383c0-8.760816 7.452382-15.871868 16.611417-15.871868z m16.554529 114.004384h85.673953v-82.260648h-85.673953V455.561359z"  horiz-adv-x="1592" />

    
    <glyph glyph-name="filter" unicode="&#58946;" d="M1098.4448 173.26080000000002h-321.1264c-13.4144 0-26.7776 13.4144-26.7776 26.7776s13.3632 26.7776 26.7776 26.7776h321.1264c13.3632 0 26.7776-13.4144 26.7776-26.7776s-13.4144-26.7776-26.7776-26.7776z m0 160.5632h-321.1264c-13.4144 0-26.7776 13.4144-26.7776 26.7776s13.3632 26.7776 26.7776 26.7776h321.1264c13.3632 0 26.7776-13.4144 26.7776-26.7776s-13.4144-26.7776-26.7776-26.7776z m-217.4464 378.0096C877.6704 708.5056 563.2 414.1056 563.2 414.1056v-508.416l-214.1184 107.008v401.408l-307.712 287.744c-3.3792 3.328-6.7072 6.656-10.0352 6.656C11.2128 728.576 1.1776 755.3536 1.1776 785.4592 1.1776 845.6704 51.3536 895.8464 111.616 895.8464h689.1008c60.2112 0 110.3872-50.176 110.3872-110.3872 0-30.1056-13.3632-56.832-30.1056-73.6256z m-80.2816 123.8016H111.5648c-26.7264 0-50.176-23.3984-50.176-50.176 0-13.4144 3.3792-26.7776 13.4144-33.4848l3.328-3.328 297.728-280.9856 20.0704-16.7424 3.3792-33.4336-3.3792-357.9392 107.008-53.5552v444.928l20.1216 16.7424 301.056 277.6576 3.3792 3.328a42.9568 42.9568 0 0 1 13.312 33.4336c10.0864 30.1568-13.312 53.5552-40.0896 53.5552z m-23.3984-769.3824h321.1264c13.3632 0 26.7776-13.4144 26.7776-26.7776 0-13.4144-13.4144-26.7776-26.7776-26.7776h-321.1264c-13.4144 0-26.7776 13.3632-26.7776 26.7776 0 16.6912 10.0352 26.7776 26.7776 26.7776z"  horiz-adv-x="1126" />

    
    <glyph glyph-name="upload" unicode="&#58881;" d="M488.521143 821.906286a34.596571 34.596571 0 0 0 49.005714 0l155.794286-155.940572a34.596571 34.596571 0 0 0-48.786286-48.859428L547.620571 714.020571v-577.828571a34.596571 34.596571 0 0 0-69.193142 0v577.828571L381.513143 617.106286a34.450286 34.450286 0 0 0-48.786286 0 34.669714 34.669714 0 0 0-0.146286 48.859428L488.594286 821.906286z m436.882286-566.272a34.596571 34.596571 0 0 1-34.596572-34.669715V25.600000000000023a20.626286 20.626286 0 0 0-20.626286-20.626286H153.673143a20.626286 20.626286 0 0 0-20.553143 20.626286V221.110857a34.596571 34.596571 0 0 1-69.12 0v-222.939428a62.171429 62.171429 0 0 1 62.098286-62.098286h771.803428a62.171429 62.171429 0 0 1 62.098286 62.171428V221.03771400000005a34.596571 34.596571 0 0 1-34.596571 34.523429z"  horiz-adv-x="1024" />

    
    <glyph glyph-name="view" unicode="&#58882;" d="M621.952-54.912000000000035H173.184a99.136 99.136 0 0 0-99.136 99.2v678.4a99.136 99.136 0 0 0 99.136 99.2h678.4a98.56 98.56 0 0 0 70.144-28.992c18.752-18.752 28.928-43.648 28.992-70.144l-1.536-448.704v-0.128a36.544 36.544 0 0 1 73.088-0.128l1.536 448.832v0.128a172.16 172.16 0 0 1-172.16 172.16H173.12a171.968 171.968 0 0 1-172.16-172.16v-678.4a171.968 171.968 0 0 1 172.16-172.224h448.768a36.48 36.48 0 0 1 0 72.96zM1013.184-65.60000000000002l-139.328 139.392a219.456 219.456 0 1 1-51.648-51.648l139.392-139.328a36.48 36.48 0 0 1 51.584 51.584z m-317.952 120.192a146.176 146.176 0 1 0 0 292.352 146.176 146.176 0 0 0 0-292.352z m109.568 431.232c20.16 0 36.48 34.368 36.48 76.48s-16.32 76.544-36.48 76.544l-584.448 0.384c-20.16 0-36.48-34.24-36.48-76.416 0-42.112 16.32-76.544 36.48-76.544l584.448-0.448zM439.488 266.432c13.056 0 25.088 14.592 31.616 38.4 6.528 23.68 6.528 52.928 0 76.672-6.528 23.68-18.56 38.4-31.616 38.4H220.352c-13.056 0-25.088-14.656-31.616-38.4-6.528-23.68-6.528-52.928 0-76.608 6.528-23.68 18.56-38.336 31.616-38.336l219.136-0.128z m-219.136-65.536c-20.16 0-36.48-34.368-36.48-76.736 0-42.304 16.32-76.672 36.48-76.672h146.112c13.12-0.32 25.28 14.208 31.936 38.016a152.64 152.64 0 0 1 0 77.12c-6.656 23.872-18.816 38.4-31.936 38.08l-146.112 0.192z"  horiz-adv-x="1024" />

    
    <glyph glyph-name="click" unicode="&#58883;" d="M851.584 651.84H315.328c-40.32 0-73.024-32.768-73.024-73.088v-479.744c0-40.32 32.704-73.088 73.024-73.088h168.896a30.272 30.272 0 1 1 0 60.608H315.328a12.48 12.48 0 0 0-12.48 12.48V578.752c0 6.912 5.568 12.48 12.48 12.48h536.32c6.848 0 12.48-5.568 12.48-12.48v-229.504a30.272 30.272 0 1 1 60.544 0V578.752a73.024 73.024 0 0 1-73.088 73.088M704.256 742.656a30.272 30.272 0 0 1-30.272 30.336H194.24c-40.32 0-73.088-32.768-73.088-73.088v-479.744a30.272 30.272 0 1 1 60.544 0V699.904c0 6.912 5.632 12.48 12.544 12.48h479.744a30.336 30.336 0 0 1 30.272 30.272M583.104 863.808A30.272 30.272 0 0 1 552.832 894.08H73.088C32.768 894.08 0 861.44 0 821.12v-479.744a30.272 30.272 0 1 1 60.544 0V821.056c0 6.912 5.632 12.48 12.544 12.48h479.744A30.336 30.336 0 0 1 583.04 863.808M814.912 182.272l-67.52-35.456-35.392-67.392-17.92-34.176L616.576 277.76l232.64-77.44-34.24-18.048z m139.264 46.848L562.368 359.552a22.08 22.08 0 0 1-13.632 0 22.144 22.144 0 0 1-14.08-28.032l130.24-390.4a22.272 22.272 0 0 1 21.184-16.064 21.76 21.76 0 0 1 19.392 11.712l60.16 114.432 109.056-109.312 1.28-1.024a21.76 21.76 0 0 1 15.488-6.4 21.76 21.76 0 0 1 15.552 6.4l46.464 46.656a21.888 21.888 0 0 1 0 31.04l-110.4 110.144 114.24 60.16a21.76 21.76 0 0 1 10.624 12.608 21.76 21.76 0 0 1-13.76 27.648z"  horiz-adv-x="1024" />

    
    </font>
</defs>
</svg>
